<svg xmlns="http://www.w3.org/2000/svg" xmlns:xlink="http://www.w3.org/1999/xlink" width="500" zoomAndPan="magnify" viewBox="0 0 375 374.999991" height="500" preserveAspectRatio="xMidYMid meet" version="1.0"><path fill="#1f2937" d="M 43.011719 52.136719 C 42.890625 52.136719 42.8125 52.195312 42.660156 52.359375 C 42.140625 52.882812 37.703125 58.371094 41.34375 87.425781 C 44.164062 109.917969 50.96875 139.4375 61.054688 172.960938 L 87.667969 165.832031 C 79.636719 131.753906 70.765625 102.796875 61.960938 81.910156 C 50.578125 54.921875 43.996094 52.386719 43.28125 52.1875 C 43.164062 52.152344 43.078125 52.136719 43.011719 52.136719 Z M 58.75 180.496094 C 57.289062 180.496094 55.945312 179.546875 55.5 178.082031 C 34.53125 109.261719 27.582031 58.046875 37.796875 47.605469 C 39.78125 45.574219 42.382812 44.878906 45.117188 45.644531 C 59.183594 49.582031 78.78125 97.414062 95.039062 167.496094 C 95.453125 169.28125 94.378906 171.070312 92.609375 171.546875 L 59.632812 180.375 C 59.339844 180.453125 59.042969 180.496094 58.75 180.496094 Z M 58.75 180.496094 " fill-opacity="1" fill-rule="evenodd"/><path fill="#1f2937" d="M 104.933594 241.148438 C 103.152344 241.148438 101.65625 239.757812 101.542969 237.960938 C 99.09375 199.511719 88.582031 169.710938 88.476562 169.421875 C 87.84375 167.652344 88.769531 165.703125 90.535156 165.074219 C 92.304688 164.441406 94.25 165.363281 94.882812 167.132812 C 95.328125 168.378906 105.820312 198.132812 108.328125 237.527344 C 108.449219 239.402344 107.027344 241.019531 105.152344 241.140625 C 105.078125 241.140625 105.003906 241.148438 104.933594 241.148438 Z M 82.421875 247.179688 C 81.167969 247.179688 79.964844 246.488281 79.371094 245.289062 C 61.839844 209.914062 56.046875 178.90625 55.808594 177.601562 C 55.472656 175.753906 56.695312 173.980469 58.542969 173.640625 C 60.390625 173.300781 62.160156 174.527344 62.5 176.375 C 62.554688 176.6875 68.382812 207.796875 85.464844 242.265625 C 86.296875 243.949219 85.609375 245.992188 83.925781 246.828125 C 83.441406 247.066406 82.925781 247.179688 82.421875 247.179688 Z M 82.421875 247.179688 " fill-opacity="1" fill-rule="evenodd"/><path fill="#1f2937" d="M 82.792969 243.671875 L 82.800781 243.671875 Z M 106.90625 240.933594 C 106.417969 240.933594 105.925781 240.996094 105.441406 241.128906 L 83.671875 246.957031 C 83.671875 246.957031 83.671875 246.960938 83.671875 246.960938 C 82.210938 247.347656 80.988281 248.296875 80.222656 249.621094 C 79.457031 250.945312 79.25 252.476562 79.644531 253.941406 C 80.457031 256.972656 83.589844 258.785156 86.625 257.964844 L 108.390625 252.136719 C 109.851562 251.746094 111.078125 250.796875 111.84375 249.472656 C 112.605469 248.148438 112.8125 246.621094 112.421875 245.160156 C 112.03125 243.695312 111.085938 242.46875 109.761719 241.703125 C 108.875 241.195312 107.894531 240.933594 106.90625 240.933594 Z M 85.148438 264.960938 C 82.980469 264.960938 80.835938 264.394531 78.902344 263.277344 C 76.007812 261.605469 73.9375 258.914062 73.074219 255.699219 C 72.210938 252.484375 72.660156 249.121094 74.332031 246.222656 C 76.003906 243.320312 78.699219 241.25 81.914062 240.394531 L 103.679688 234.558594 C 106.894531 233.703125 110.261719 234.148438 113.160156 235.820312 C 116.058594 237.492188 118.128906 240.183594 118.988281 243.398438 C 119.851562 246.613281 119.40625 249.976562 117.730469 252.871094 C 116.058594 255.769531 113.367188 257.84375 110.152344 258.699219 L 88.382812 264.535156 C 87.3125 264.820312 86.226562 264.960938 85.148438 264.960938 Z M 85.148438 264.960938 " fill-opacity="1" fill-rule="evenodd"/><path fill="#1f2937" d="M 117.449219 324.003906 L 117.457031 324.003906 Z M 114.722656 324.734375 Z M 116.785156 330.722656 C 115.636719 330.722656 113.90625 330.144531 110.417969 327.664062 C 108.320312 326.175781 105.03125 323.585938 101.269531 319.699219 C 91.492188 309.597656 76.375 288.425781 84.976562 260.066406 C 85.519531 258.277344 87.417969 257.265625 89.214844 257.800781 C 91.011719 258.347656 92.027344 260.246094 91.484375 262.042969 C 81.476562 295.03125 108.074219 318.109375 115.734375 323.054688 C 119.894531 314.945312 131.386719 281.660156 106.222656 258.101562 C 104.851562 256.808594 104.78125 254.664062 106.066406 253.292969 C 107.347656 251.925781 109.5 251.851562 110.871094 253.136719 C 132.496094 273.390625 129.996094 299.28125 126.582031 312.914062 C 125.265625 318.160156 123.714844 322.046875 122.644531 324.386719 C 120.285156 329.535156 118.933594 330.269531 117.753906 330.589844 C 117.464844 330.667969 117.15625 330.722656 116.785156 330.722656 Z M 116.785156 330.722656 " fill-opacity="1" fill-rule="evenodd"/><path fill="#1f2937" d="M 227.097656 50.269531 C 206.050781 50.269531 179.695312 61.753906 155.90625 81.414062 C 132.25 100.96875 115.894531 124.429688 113.226562 142.652344 C 110.996094 157.914062 118.589844 167.785156 135.804688 172 C 168.78125 180.078125 164.507812 204.382812 160.738281 225.835938 C 159.953125 230.308594 159.140625 234.933594 158.648438 239.375 C 155.992188 263.269531 157.652344 295.25 180.652344 311.898438 C 209.882812 333.0625 266.417969 322.765625 292.496094 306.375 L 294.304688 309.25 L 292.496094 306.375 C 333.203125 280.796875 347.734375 228.121094 331.371094 165.460938 C 323.546875 135.503906 309.28125 107.335938 291.207031 86.144531 C 272.128906 63.78125 250.925781 51.394531 229.890625 50.339844 C 228.972656 50.289062 228.039062 50.269531 227.097656 50.269531 Z M 225.484375 330.679688 C 207.308594 330.679688 189.722656 326.855469 176.660156 317.402344 C 156.359375 302.707031 147.792969 275.464844 151.890625 238.625 C 152.40625 233.972656 153.238281 229.234375 154.042969 224.660156 C 157.917969 202.589844 160.980469 185.171875 134.1875 178.605469 C 113.585938 173.554688 103.75 160.441406 106.5 141.667969 C 109.402344 121.851562 126.671875 96.753906 151.574219 76.175781 C 178.089844 54.253906 206.761719 42.367188 230.234375 43.546875 C 253.1875 44.703125 276.058594 57.910156 296.378906 81.734375 C 315.109375 103.6875 329.875 132.816406 337.953125 163.746094 C 345.703125 193.433594 346.703125 222.328125 340.835938 247.292969 C 334.214844 275.484375 318.75 297.90625 296.113281 312.132812 C 279.355469 322.664062 251.808594 330.679688 225.484375 330.679688 Z M 225.484375 330.679688 " fill-opacity="1" fill-rule="evenodd"/><path fill="#1f2937" d="M 297.4375 200.546875 C 286.894531 200.546875 278.3125 209.121094 278.3125 219.667969 C 278.3125 230.203125 286.894531 238.789062 297.4375 238.789062 C 307.984375 238.789062 316.5625 230.203125 316.5625 219.667969 C 316.5625 209.121094 307.984375 200.546875 297.4375 200.546875 Z M 297.4375 245.585938 C 283.144531 245.585938 271.511719 233.957031 271.511719 219.667969 C 271.511719 205.375 283.144531 193.746094 297.4375 193.746094 C 311.734375 193.746094 323.363281 205.375 323.363281 219.667969 C 323.363281 233.957031 311.734375 245.585938 297.4375 245.585938 Z M 297.4375 245.585938 " fill-opacity="1" fill-rule="evenodd"/><path fill="#1f2937" d="M 236.003906 255.820312 C 225.460938 255.820312 216.878906 264.394531 216.878906 274.941406 C 216.878906 285.484375 225.460938 294.058594 236.003906 294.058594 C 246.550781 294.058594 255.128906 285.484375 255.128906 274.941406 C 255.128906 264.394531 246.550781 255.820312 236.003906 255.820312 Z M 236.003906 300.859375 C 221.710938 300.859375 210.078125 289.230469 210.078125 274.941406 C 210.078125 260.648438 221.710938 249.019531 236.003906 249.019531 C 250.300781 249.019531 261.929688 260.648438 261.929688 274.941406 C 261.929688 289.230469 250.300781 300.859375 236.003906 300.859375 Z M 236.003906 300.859375 " fill-opacity="1" fill-rule="evenodd"/><path fill="#1f2937" d="M 245.21875 77.710938 C 234.675781 77.710938 226.09375 86.289062 226.09375 96.832031 C 226.09375 107.371094 234.675781 115.953125 245.21875 115.953125 C 255.765625 115.953125 264.34375 107.371094 264.34375 96.832031 C 264.34375 86.289062 255.765625 77.710938 245.21875 77.710938 Z M 245.21875 122.746094 C 230.925781 122.746094 219.292969 111.125 219.292969 96.832031 C 219.292969 82.535156 230.925781 70.914062 245.21875 70.914062 C 259.515625 70.914062 271.144531 82.535156 271.144531 96.832031 C 271.144531 111.125 259.515625 122.746094 245.21875 122.746094 Z M 245.21875 122.746094 " fill-opacity="1" fill-rule="evenodd"/><path fill="#1f2937" d="M 265.699219 141.171875 C 255.152344 141.171875 246.574219 149.746094 246.574219 160.292969 C 246.574219 170.835938 255.152344 179.414062 265.699219 179.414062 C 276.242188 179.414062 284.824219 170.835938 284.824219 160.292969 C 284.824219 149.746094 276.242188 141.171875 265.699219 141.171875 Z M 265.699219 186.210938 C 251.402344 186.210938 239.773438 174.582031 239.773438 160.292969 C 239.773438 146 251.402344 134.371094 265.699219 134.371094 C 279.992188 134.371094 291.625 146 291.625 160.292969 C 291.625 174.582031 279.992188 186.210938 265.699219 186.210938 Z M 265.699219 186.210938 " fill-opacity="1" fill-rule="evenodd"/><path fill="#1f2937" d="M 174.875 113.957031 C 164.328125 113.957031 155.75 122.53125 155.75 133.078125 C 155.75 143.613281 164.328125 152.191406 174.875 152.191406 C 185.421875 152.191406 194 143.613281 194 133.078125 C 194 122.53125 185.421875 113.957031 174.875 113.957031 Z M 174.875 158.988281 C 160.578125 158.988281 148.949219 147.367188 148.949219 133.078125 C 148.949219 118.777344 160.578125 107.15625 174.875 107.15625 C 189.171875 107.15625 200.800781 118.777344 200.800781 133.078125 C 200.800781 147.367188 189.171875 158.988281 174.875 158.988281 Z M 174.875 158.988281 " fill-opacity="1" fill-rule="evenodd"/><path fill="#1f2937" d="M 206.082031 180.050781 C 195.539062 180.050781 186.957031 188.625 186.957031 199.171875 C 186.957031 209.714844 195.539062 218.292969 206.082031 218.292969 C 216.628906 218.292969 225.207031 209.714844 225.207031 199.171875 C 225.207031 188.625 216.628906 180.050781 206.082031 180.050781 Z M 206.082031 225.089844 C 191.789062 225.089844 180.15625 213.460938 180.15625 199.171875 C 180.15625 184.878906 191.789062 173.25 206.082031 173.25 C 220.378906 173.25 232.007812 184.878906 232.007812 199.171875 C 232.007812 213.460938 220.378906 225.089844 206.082031 225.089844 Z M 206.082031 225.089844 " fill-opacity="1" fill-rule="evenodd"/></svg>