<svg xmlns="http://www.w3.org/2000/svg" xmlns:xlink="http://www.w3.org/1999/xlink" width="500" zoomAndPan="magnify" viewBox="0 0 375 374.999991" height="500" preserveAspectRatio="xMidYMid meet" version="1.0"><defs><clipPath id="c349db8e51"><path d="M 48.203125 48.203125 L 77 48.203125 L 77 77 L 48.203125 77 Z M 48.203125 48.203125 " clip-rule="nonzero"/></clipPath><clipPath id="ef56d65e9e"><path d="M 48.203125 298 L 77 298 L 77 326.453125 L 48.203125 326.453125 Z M 48.203125 298 " clip-rule="nonzero"/></clipPath><clipPath id="17c6c509ea"><path d="M 298 298 L 326.453125 298 L 326.453125 326.453125 L 298 326.453125 Z M 298 298 " clip-rule="nonzero"/></clipPath><clipPath id="e4f59fc7a6"><path d="M 298 48.203125 L 326.453125 48.203125 L 326.453125 77 L 298 77 Z M 298 48.203125 " clip-rule="nonzero"/></clipPath><clipPath id="2b0ee4eaa3"><path d="M 48.203125 71 L 54 71 L 54 304 L 48.203125 304 Z M 48.203125 71 " clip-rule="nonzero"/></clipPath><clipPath id="98ee40a72b"><path d="M 71 48.203125 L 304 48.203125 L 304 54 L 71 54 Z M 71 48.203125 " clip-rule="nonzero"/></clipPath><clipPath id="f289b6e51b"><path d="M 321 71 L 326.453125 71 L 326.453125 304 L 321 304 Z M 321 71 " clip-rule="nonzero"/></clipPath><clipPath id="5e08653440"><path d="M 71 321 L 304 321 L 304 326.453125 L 71 326.453125 Z M 71 321 " clip-rule="nonzero"/></clipPath><clipPath id="c9446846ca"><path d="M 48.203125 184 L 77 184 L 77 190 L 48.203125 190 Z M 48.203125 184 " clip-rule="nonzero"/></clipPath><clipPath id="d892af73d1"><path d="M 184 48.203125 L 190 48.203125 L 190 77 L 184 77 Z M 184 48.203125 " clip-rule="nonzero"/></clipPath><clipPath id="a22f726db3"><path d="M 275 184 L 326.453125 184 L 326.453125 190 L 275 190 Z M 275 184 " clip-rule="nonzero"/></clipPath><clipPath id="785316b66b"><path d="M 184 298 L 190 298 L 190 326.453125 L 184 326.453125 Z M 184 298 " clip-rule="nonzero"/></clipPath></defs><g clip-path="url(#c349db8e51)"><path fill="#1f2937" d="M 73.519531 48.296875 C 73.472656 48.296875 73.421875 48.300781 73.371094 48.300781 L 68.597656 48.582031 C 68.480469 48.589844 68.367188 48.605469 68.253906 48.628906 L 64.039062 49.46875 C 63.898438 49.496094 63.761719 49.535156 63.628906 49.589844 L 59.980469 50.992188 C 59.824219 51.050781 59.675781 51.128906 59.535156 51.21875 L 56.445312 53.183594 C 56.289062 53.28125 56.148438 53.394531 56.019531 53.523438 L 53.488281 56.054688 C 53.359375 56.183594 53.246094 56.324219 53.148438 56.480469 L 51.179688 59.570312 C 51.09375 59.710938 51.015625 59.859375 50.957031 60.015625 L 49.550781 63.667969 C 49.5 63.796875 49.460938 63.933594 49.433594 64.074219 L 48.589844 68.289062 C 48.570312 68.402344 48.554688 68.515625 48.546875 68.632812 L 48.265625 73.40625 C 48.183594 74.785156 49.238281 75.96875 50.617188 76.050781 C 50.667969 76.054688 50.714844 76.054688 50.765625 76.054688 C 52.082031 76.054688 53.183594 75.03125 53.261719 73.699219 L 53.53125 69.097656 L 54.296875 65.265625 L 55.535156 62.042969 L 57.222656 59.398438 L 59.359375 57.257812 L 62.007812 55.574219 L 65.226562 54.335938 L 69.0625 53.566406 L 73.664062 53.296875 C 75.042969 53.214844 76.097656 52.03125 76.015625 50.652344 C 75.9375 49.324219 74.835938 48.296875 73.519531 48.296875 Z M 73.519531 48.296875 " fill-opacity="1" fill-rule="nonzero"/></g><g clip-path="url(#ef56d65e9e)"><path fill="#1f2937" d="M 50.765625 298.601562 C 50.714844 298.601562 50.667969 298.601562 50.617188 298.605469 C 49.238281 298.6875 48.183594 299.871094 48.265625 301.25 L 48.546875 306.027344 C 48.554688 306.140625 48.570312 306.257812 48.589844 306.371094 L 49.433594 310.582031 C 49.460938 310.722656 49.5 310.859375 49.550781 310.992188 L 50.957031 314.644531 C 51.015625 314.796875 51.09375 314.949219 51.179688 315.085938 L 53.148438 318.179688 C 53.246094 318.332031 53.359375 318.476562 53.488281 318.605469 L 56.019531 321.132812 C 56.148438 321.261719 56.289062 321.375 56.445312 321.472656 L 59.535156 323.441406 C 59.675781 323.53125 59.824219 323.605469 59.980469 323.664062 L 63.628906 325.070312 C 63.761719 325.121094 63.898438 325.160156 64.039062 325.1875 L 68.253906 326.03125 C 68.367188 326.054688 68.480469 326.066406 68.597656 326.074219 L 73.371094 326.355469 C 73.421875 326.359375 73.472656 326.359375 73.519531 326.359375 C 74.835938 326.359375 75.9375 325.335938 76.015625 324.003906 C 76.097656 322.625 75.042969 321.441406 73.664062 321.359375 L 69.0625 321.089844 L 65.226562 320.324219 L 62.007812 319.085938 L 59.359375 317.398438 L 57.222656 315.261719 L 55.535156 312.613281 L 54.296875 309.394531 L 53.53125 305.558594 L 53.261719 300.957031 C 53.183594 299.628906 52.082031 298.601562 50.765625 298.601562 Z M 50.765625 298.601562 " fill-opacity="1" fill-rule="nonzero"/></g><g clip-path="url(#17c6c509ea)"><path fill="#1f2937" d="M 323.820312 298.601562 C 322.503906 298.601562 321.402344 299.628906 321.324219 300.957031 L 321.054688 305.558594 L 320.289062 309.394531 L 319.050781 312.613281 L 317.363281 315.261719 L 315.226562 317.398438 L 312.578125 319.085938 L 309.359375 320.324219 L 305.523438 321.089844 L 300.921875 321.359375 C 299.542969 321.441406 298.488281 322.625 298.570312 324.003906 C 298.648438 325.335938 299.75 326.359375 301.066406 326.359375 C 301.113281 326.359375 301.164062 326.359375 301.214844 326.355469 L 305.988281 326.074219 C 306.105469 326.066406 306.21875 326.054688 306.332031 326.03125 L 310.546875 325.1875 C 310.6875 325.160156 310.824219 325.121094 310.957031 325.070312 L 314.605469 323.664062 C 314.761719 323.605469 314.910156 323.53125 315.050781 323.441406 L 318.140625 321.472656 C 318.296875 321.375 318.4375 321.261719 318.566406 321.132812 L 321.097656 318.605469 C 321.226562 318.476562 321.339844 318.332031 321.4375 318.179688 L 323.40625 315.085938 C 323.492188 314.949219 323.570312 314.796875 323.628906 314.644531 L 325.035156 310.992188 C 325.085938 310.859375 325.125 310.722656 325.152344 310.582031 L 325.996094 306.371094 C 326.015625 306.257812 326.03125 306.140625 326.039062 306.027344 L 326.320312 301.25 C 326.402344 299.871094 325.347656 298.6875 323.96875 298.605469 C 323.917969 298.601562 323.871094 298.601562 323.820312 298.601562 Z M 323.820312 298.601562 " fill-opacity="1" fill-rule="nonzero"/></g><g clip-path="url(#e4f59fc7a6)"><path fill="#1f2937" d="M 301.066406 48.296875 C 299.75 48.296875 298.648438 49.324219 298.570312 50.652344 C 298.488281 52.03125 299.542969 53.214844 300.921875 53.296875 L 305.523438 53.566406 L 309.359375 54.335938 L 312.578125 55.574219 L 315.222656 57.257812 L 317.363281 59.398438 L 319.050781 62.042969 L 320.289062 65.261719 L 321.054688 69.097656 L 321.324219 73.699219 C 321.402344 75.03125 322.503906 76.054688 323.820312 76.054688 C 323.871094 76.054688 323.917969 76.054688 323.96875 76.050781 C 325.347656 75.96875 326.402344 74.785156 326.320312 73.40625 L 326.039062 68.632812 C 326.03125 68.515625 326.015625 68.402344 325.996094 68.289062 L 325.152344 64.074219 C 325.125 63.933594 325.085938 63.796875 325.035156 63.667969 L 323.628906 60.015625 C 323.570312 59.859375 323.492188 59.710938 323.40625 59.570312 L 321.4375 56.480469 C 321.339844 56.324219 321.226562 56.183594 321.097656 56.054688 L 318.566406 53.523438 C 318.4375 53.394531 318.296875 53.28125 318.140625 53.183594 L 315.050781 51.21875 C 314.910156 51.128906 314.761719 51.050781 314.605469 50.992188 L 310.957031 49.589844 C 310.824219 49.535156 310.6875 49.496094 310.546875 49.46875 L 306.332031 48.628906 C 306.21875 48.605469 306.105469 48.589844 305.988281 48.582031 L 301.214844 48.300781 C 301.164062 48.300781 301.113281 48.296875 301.066406 48.296875 Z M 301.066406 48.296875 " fill-opacity="1" fill-rule="nonzero"/></g><g clip-path="url(#2b0ee4eaa3)"><path fill="#1f2937" d="M 50.761719 71.050781 C 49.382812 71.050781 48.261719 72.171875 48.261719 73.554688 L 48.261719 301.101562 C 48.261719 302.484375 49.382812 303.605469 50.761719 303.605469 C 52.144531 303.605469 53.265625 302.484375 53.265625 301.101562 L 53.265625 73.554688 C 53.265625 72.171875 52.144531 71.050781 50.761719 71.050781 Z M 50.761719 71.050781 " fill-opacity="1" fill-rule="nonzero"/></g><g clip-path="url(#98ee40a72b)"><path fill="#1f2937" d="M 73.519531 48.296875 C 72.136719 48.296875 71.015625 49.417969 71.015625 50.800781 C 71.015625 52.179688 72.136719 53.300781 73.519531 53.300781 L 301.066406 53.300781 C 302.449219 53.300781 303.570312 52.179688 303.570312 50.800781 C 303.570312 49.417969 302.449219 48.296875 301.066406 48.296875 Z M 73.519531 48.296875 " fill-opacity="1" fill-rule="nonzero"/></g><g clip-path="url(#f289b6e51b)"><path fill="#1f2937" d="M 323.824219 71.050781 C 322.441406 71.050781 321.320312 72.171875 321.320312 73.554688 L 321.320312 301.101562 C 321.320312 302.484375 322.441406 303.605469 323.824219 303.605469 C 325.203125 303.605469 326.324219 302.484375 326.324219 301.101562 L 326.324219 73.554688 C 326.324219 72.171875 325.203125 71.050781 323.824219 71.050781 Z M 323.824219 71.050781 " fill-opacity="1" fill-rule="nonzero"/></g><g clip-path="url(#5e08653440)"><path fill="#1f2937" d="M 73.519531 321.355469 C 72.136719 321.355469 71.015625 322.476562 71.015625 323.859375 C 71.015625 325.238281 72.136719 326.359375 73.519531 326.359375 L 301.066406 326.359375 C 302.449219 326.359375 303.570312 325.242188 303.570312 323.859375 C 303.570312 322.476562 302.449219 321.355469 301.066406 321.355469 Z M 73.519531 321.355469 " fill-opacity="1" fill-rule="nonzero"/></g><path fill="#1f2937" d="M 187.292969 184.828125 L 210.046875 184.828125 C 211.429688 184.828125 212.550781 185.949219 212.550781 187.328125 C 212.550781 188.710938 211.429688 189.832031 210.046875 189.832031 L 187.292969 189.832031 C 185.910156 189.832031 184.792969 188.710938 184.792969 187.328125 C 184.792969 185.945312 185.910156 184.828125 187.292969 184.828125 Z M 187.292969 184.828125 " fill-opacity="1" fill-rule="nonzero"/><path fill="#1f2937" d="M 189.792969 164.574219 L 189.792969 187.328125 C 189.792969 188.710938 188.675781 189.832031 187.292969 189.832031 C 185.910156 189.832031 184.792969 188.710938 184.792969 187.328125 L 184.792969 164.574219 C 184.792969 163.191406 185.910156 162.070312 187.292969 162.070312 C 188.675781 162.070312 189.792969 163.191406 189.792969 164.574219 Z M 189.792969 164.574219 " fill-opacity="1" fill-rule="nonzero"/><path fill="#1f2937" d="M 187.292969 189.832031 L 164.539062 189.832031 C 163.15625 189.832031 162.035156 188.710938 162.035156 187.328125 C 162.035156 185.949219 163.15625 184.828125 164.539062 184.828125 L 187.292969 184.828125 C 188.675781 184.828125 189.792969 185.945312 189.792969 187.328125 C 189.792969 188.710938 188.675781 189.832031 187.292969 189.832031 Z M 187.292969 189.832031 " fill-opacity="1" fill-rule="nonzero"/><path fill="#1f2937" d="M 189.792969 187.328125 L 189.792969 210.082031 C 189.792969 211.464844 188.675781 212.585938 187.292969 212.585938 C 185.910156 212.585938 184.792969 211.464844 184.792969 210.082031 L 184.792969 187.328125 C 184.792969 185.945312 185.910156 184.828125 187.292969 184.828125 C 188.675781 184.828125 189.792969 185.945312 189.792969 187.328125 Z M 189.792969 187.328125 " fill-opacity="1" fill-rule="nonzero"/><path fill="#1f2937" d="M 187.394531 71.054688 L 189.277344 71.132812 C 189.34375 71.136719 189.414062 71.140625 189.480469 71.148438 L 191.347656 71.382812 C 191.417969 71.390625 191.484375 71.402344 191.550781 71.414062 L 193.390625 71.800781 C 193.460938 71.816406 193.527344 71.832031 193.59375 71.851562 L 195.394531 72.390625 C 195.460938 72.410156 195.527344 72.429688 195.589844 72.457031 L 197.34375 73.140625 C 197.40625 73.164062 197.46875 73.191406 197.53125 73.222656 L 199.222656 74.050781 C 199.285156 74.078125 199.34375 74.113281 199.402344 74.148438 L 201.019531 75.109375 C 201.078125 75.144531 201.136719 75.183594 201.191406 75.222656 L 202.722656 76.316406 C 202.777344 76.355469 202.832031 76.398438 202.886719 76.441406 L 204.320312 77.660156 C 204.375 77.703125 204.425781 77.75 204.472656 77.796875 L 205.804688 79.128906 C 205.851562 79.175781 205.898438 79.226562 205.941406 79.28125 L 207.160156 80.714844 C 207.203125 80.769531 207.246094 80.824219 207.285156 80.878906 L 208.378906 82.410156 C 208.417969 82.464844 208.457031 82.523438 208.492188 82.582031 L 209.453125 84.199219 C 209.488281 84.257812 209.523438 84.316406 209.554688 84.378906 L 210.378906 86.070312 C 210.410156 86.132812 210.4375 86.195312 210.460938 86.257812 L 211.144531 88.011719 C 211.171875 88.074219 211.191406 88.140625 211.210938 88.207031 L 211.75 90.007812 C 211.769531 90.074219 211.785156 90.140625 211.800781 90.210938 L 212.1875 92.050781 C 212.199219 92.117188 212.210938 92.1875 212.21875 92.253906 L 212.453125 94.121094 C 212.460938 94.1875 212.46875 94.257812 212.46875 94.328125 L 212.546875 96.207031 C 212.550781 96.273438 212.550781 96.339844 212.546875 96.40625 L 212.476562 98.191406 C 212.476562 98.257812 212.46875 98.324219 212.460938 98.386719 L 212.253906 100.164062 C 212.246094 100.226562 212.234375 100.292969 212.222656 100.355469 L 211.871094 102.109375 C 211.859375 102.171875 211.84375 102.238281 211.828125 102.300781 L 211.34375 104.019531 C 211.324219 104.082031 211.304688 104.144531 211.28125 104.207031 L 210.664062 105.882812 C 210.640625 105.945312 210.613281 106.003906 210.585938 106.0625 L 209.839844 107.6875 C 209.8125 107.746094 209.78125 107.804688 209.75 107.863281 L 208.878906 109.421875 C 208.84375 109.476562 208.8125 109.535156 208.773438 109.589844 L 207.78125 111.074219 C 207.746094 111.128906 207.707031 111.179688 207.667969 111.234375 L 206.558594 112.636719 C 206.519531 112.6875 206.476562 112.738281 206.433594 112.785156 L 205.21875 114.097656 C 205.175781 114.144531 205.128906 114.191406 205.082031 114.234375 L 203.769531 115.449219 C 203.722656 115.492188 203.671875 115.535156 203.621094 115.578125 L 202.214844 116.683594 C 202.164062 116.722656 202.113281 116.761719 202.058594 116.796875 L 200.570312 117.789062 C 200.519531 117.828125 200.460938 117.859375 200.40625 117.894531 L 198.847656 118.765625 C 198.789062 118.796875 198.730469 118.828125 198.671875 118.855469 L 197.046875 119.605469 C 196.988281 119.632812 196.929688 119.65625 196.867188 119.679688 L 195.191406 120.296875 C 195.128906 120.320312 195.066406 120.339844 195.003906 120.359375 L 193.285156 120.84375 C 193.222656 120.859375 193.15625 120.875 193.09375 120.886719 L 191.339844 121.238281 C 191.277344 121.25 191.210938 121.261719 191.148438 121.269531 L 189.371094 121.476562 C 189.308594 121.484375 189.242188 121.492188 189.175781 121.492188 L 187.390625 121.5625 C 186.011719 121.617188 184.847656 120.542969 184.792969 119.160156 C 184.738281 117.78125 185.8125 116.617188 187.195312 116.5625 L 188.980469 116.492188 L 188.785156 116.507812 L 190.558594 116.300781 L 190.363281 116.332031 L 192.117188 115.980469 L 191.925781 116.027344 L 193.644531 115.542969 L 193.457031 115.601562 L 195.136719 114.984375 L 194.953125 115.058594 L 196.574219 114.3125 L 196.402344 114.402344 L 197.960938 113.527344 L 197.792969 113.628906 L 199.277344 112.636719 L 199.121094 112.753906 L 200.523438 111.648438 L 200.371094 111.773438 L 201.683594 110.5625 L 201.546875 110.699219 L 202.757812 109.390625 L 202.632812 109.539062 L 203.738281 108.136719 L 203.621094 108.292969 L 204.613281 106.808594 L 204.511719 106.976562 L 205.386719 105.417969 L 205.296875 105.59375 L 206.042969 103.96875 L 205.96875 104.152344 L 206.585938 102.476562 L 206.527344 102.660156 L 207.011719 100.941406 L 206.964844 101.132812 L 207.3125 99.378906 L 207.285156 99.574219 L 207.492188 97.800781 L 207.476562 97.996094 L 207.546875 96.210938 L 207.546875 96.414062 L 207.46875 94.53125 L 207.488281 94.738281 L 207.253906 92.871094 L 207.289062 93.078125 L 206.902344 91.234375 L 206.953125 91.4375 L 206.417969 89.632812 L 206.484375 89.828125 L 205.800781 88.078125 L 205.882812 88.265625 L 205.058594 86.578125 L 205.15625 86.757812 L 204.195312 85.144531 L 204.308594 85.316406 L 203.214844 83.785156 L 203.339844 83.949219 L 202.125 82.515625 L 202.265625 82.667969 L 200.933594 81.335938 L 201.085938 81.476562 L 199.652344 80.261719 L 199.816406 80.386719 L 198.285156 79.296875 L 198.457031 79.410156 L 196.84375 78.445312 L 197.023438 78.542969 L 195.335938 77.71875 L 195.523438 77.800781 L 193.773438 77.117188 L 193.96875 77.183594 L 192.164062 76.648438 L 192.367188 76.699219 L 190.523438 76.3125 L 190.730469 76.347656 L 188.863281 76.113281 L 189.070312 76.132812 L 187.191406 76.054688 C 185.808594 75.996094 184.738281 74.832031 184.792969 73.449219 C 184.851562 72.070312 186.015625 70.996094 187.394531 71.054688 Z M 187.394531 71.054688 " fill-opacity="1" fill-rule="nonzero"/><path fill="#1f2937" d="M 230.738281 188.742188 L 229.371094 186.746094 C 229.328125 186.6875 229.292969 186.625 229.257812 186.566406 L 228.0625 184.457031 C 228.027344 184.398438 227.996094 184.332031 227.964844 184.269531 L 226.953125 182.066406 C 226.925781 182.003906 226.898438 181.9375 226.875 181.871094 L 226.054688 179.59375 C 226.03125 179.527344 226.007812 179.457031 225.992188 179.390625 L 225.367188 177.046875 C 225.347656 176.980469 225.335938 176.910156 225.320312 176.839844 L 224.898438 174.457031 C 224.886719 174.386719 224.878906 174.316406 224.871094 174.246094 L 224.65625 171.832031 C 224.648438 171.761719 224.644531 171.691406 224.644531 171.621094 L 224.632812 169.199219 C 224.632812 169.128906 224.636719 169.058594 224.640625 168.984375 L 224.835938 166.570312 C 224.839844 166.5 224.851562 166.429688 224.863281 166.359375 L 225.261719 163.972656 C 225.273438 163.902344 225.285156 163.832031 225.304688 163.765625 L 225.90625 161.417969 C 225.921875 161.347656 225.945312 161.28125 225.96875 161.214844 L 226.765625 158.925781 C 226.789062 158.859375 226.816406 158.792969 226.84375 158.730469 L 227.832031 156.519531 C 227.863281 156.453125 227.894531 156.390625 227.929688 156.328125 L 229.101562 154.210938 C 229.136719 154.148438 229.175781 154.089844 229.214844 154.027344 L 230.566406 152.019531 C 230.605469 151.960938 230.644531 151.902344 230.691406 151.847656 L 232.207031 149.960938 C 232.25 149.902344 232.296875 149.851562 232.347656 149.796875 L 234.019531 148.046875 C 234.066406 147.996094 234.117188 147.945312 234.171875 147.898438 L 235.988281 146.292969 C 236.039062 146.246094 236.09375 146.203125 236.152344 146.160156 L 238.097656 144.714844 C 238.152344 144.675781 238.210938 144.632812 238.273438 144.597656 L 240.332031 143.324219 C 240.394531 143.285156 240.453125 143.253906 240.519531 143.21875 L 242.679688 142.125 C 242.742188 142.09375 242.808594 142.066406 242.871094 142.039062 L 245.117188 141.132812 C 245.183594 141.105469 245.25 141.082031 245.320312 141.0625 L 247.632812 140.351562 C 247.703125 140.328125 247.769531 140.3125 247.839844 140.296875 L 250.207031 139.785156 C 250.277344 139.769531 250.347656 139.757812 250.417969 139.75 L 252.820312 139.441406 C 252.890625 139.429688 252.960938 139.425781 253.03125 139.421875 L 255.453125 139.320312 C 255.523438 139.316406 255.59375 139.316406 255.664062 139.320312 L 258.082031 139.421875 C 258.15625 139.425781 258.226562 139.429688 258.296875 139.441406 L 260.699219 139.75 C 260.769531 139.757812 260.839844 139.769531 260.90625 139.785156 L 263.273438 140.296875 C 263.34375 140.3125 263.414062 140.328125 263.480469 140.351562 L 265.796875 141.0625 C 265.863281 141.082031 265.929688 141.105469 265.996094 141.132812 L 268.242188 142.039062 C 268.308594 142.066406 268.375 142.09375 268.4375 142.125 L 270.597656 143.21875 C 270.660156 143.253906 270.722656 143.285156 270.78125 143.324219 L 272.84375 144.597656 C 272.902344 144.632812 272.960938 144.675781 273.019531 144.71875 L 274.964844 146.160156 C 275.019531 146.203125 275.074219 146.246094 275.128906 146.292969 L 276.941406 147.898438 C 276.996094 147.945312 277.046875 147.996094 277.097656 148.046875 L 278.769531 149.796875 C 278.816406 149.851562 278.863281 149.902344 278.910156 149.960938 L 280.425781 151.847656 C 280.46875 151.902344 280.511719 151.960938 280.550781 152.019531 L 281.902344 154.03125 C 281.941406 154.089844 281.976562 154.148438 282.011719 154.210938 L 283.1875 156.328125 C 283.222656 156.390625 283.253906 156.453125 283.28125 156.519531 L 284.269531 158.730469 C 284.300781 158.792969 284.328125 158.859375 284.351562 158.925781 L 285.148438 161.214844 C 285.171875 161.28125 285.191406 161.347656 285.210938 161.417969 L 285.8125 163.765625 C 285.828125 163.832031 285.84375 163.902344 285.855469 163.972656 L 286.253906 166.359375 C 286.265625 166.429688 286.273438 166.5 286.28125 166.570312 L 286.472656 168.984375 C 286.480469 169.058594 286.484375 169.128906 286.484375 169.199219 L 286.472656 171.621094 C 286.472656 171.691406 286.46875 171.761719 286.460938 171.832031 L 286.242188 174.246094 C 286.238281 174.316406 286.226562 174.386719 286.214844 174.457031 L 285.792969 176.839844 C 285.78125 176.910156 285.765625 176.980469 285.746094 177.046875 L 285.125 179.390625 C 285.105469 179.457031 285.085938 179.523438 285.0625 179.59375 L 284.242188 181.871094 C 284.21875 181.9375 284.191406 182.003906 284.160156 182.066406 L 283.148438 184.269531 C 283.121094 184.332031 283.085938 184.394531 283.050781 184.457031 L 281.859375 186.566406 C 281.824219 186.625 281.785156 186.6875 281.746094 186.746094 L 280.375 188.742188 C 279.59375 189.882812 278.039062 190.171875 276.898438 189.390625 C 275.757812 188.609375 275.46875 187.054688 276.25 185.914062 L 277.617188 183.917969 L 277.503906 184.097656 L 278.699219 181.992188 L 278.601562 182.179688 L 279.613281 179.980469 L 279.535156 180.175781 L 280.351562 177.898438 L 280.289062 178.101562 L 280.914062 175.761719 L 280.867188 175.96875 L 281.289062 173.585938 L 281.261719 173.796875 L 281.476562 171.382812 L 281.46875 171.597656 L 281.480469 169.175781 L 281.488281 169.386719 L 281.292969 166.972656 L 281.320312 167.183594 L 280.921875 164.796875 L 280.964844 165.003906 L 280.363281 162.660156 L 280.425781 162.863281 L 279.625 160.578125 L 279.707031 160.773438 L 278.714844 158.566406 L 278.8125 158.753906 L 277.636719 156.636719 L 277.746094 156.820312 L 276.398438 154.808594 L 276.523438 154.980469 L 275.007812 153.089844 L 275.148438 153.25 L 273.476562 151.5 L 273.628906 151.648438 L 271.816406 150.042969 L 271.980469 150.175781 L 270.035156 148.734375 L 270.210938 148.851562 L 268.152344 147.582031 L 268.339844 147.683594 L 266.175781 146.589844 L 266.371094 146.679688 L 264.125 145.773438 L 264.328125 145.84375 L 262.011719 145.132812 L 262.21875 145.1875 L 259.851562 144.675781 L 260.058594 144.710938 L 257.660156 144.402344 L 257.871094 144.421875 L 255.453125 144.316406 L 255.664062 144.316406 L 253.246094 144.421875 L 253.457031 144.402344 L 251.054688 144.710938 L 251.265625 144.675781 L 248.898438 145.1875 L 249.105469 145.132812 L 246.789062 145.84375 L 246.988281 145.773438 L 244.742188 146.679688 L 244.9375 146.589844 L 242.777344 147.683594 L 242.960938 147.582031 L 240.902344 148.851562 L 241.078125 148.734375 L 239.132812 150.175781 L 239.300781 150.042969 L 237.484375 151.648438 L 237.640625 151.5 L 235.96875 153.25 L 236.109375 153.089844 L 234.59375 154.980469 L 234.71875 154.808594 L 233.367188 156.820312 L 233.480469 156.636719 L 232.304688 158.753906 L 232.398438 158.566406 L 231.410156 160.773438 L 231.488281 160.578125 L 230.691406 162.863281 L 230.753906 162.660156 L 230.152344 165.003906 L 230.195312 164.796875 L 229.796875 167.183594 L 229.824219 166.972656 L 229.628906 169.386719 L 229.636719 169.175781 L 229.648438 171.597656 L 229.636719 171.382812 L 229.855469 173.796875 L 229.828125 173.585938 L 230.25 175.96875 L 230.203125 175.761719 L 230.824219 178.101562 L 230.761719 177.898438 L 231.582031 180.175781 L 231.5 179.980469 L 232.511719 182.179688 L 232.414062 181.992188 L 233.609375 184.097656 L 233.496094 183.917969 L 234.867188 185.914062 C 235.648438 187.054688 235.355469 188.609375 234.21875 189.390625 C 233.078125 190.171875 231.519531 189.882812 230.738281 188.742188 Z M 230.738281 188.742188 " fill-opacity="1" fill-rule="nonzero"/><path fill="#1f2937" d="M 71.019531 187.230469 L 71.089844 185.445312 C 71.089844 185.378906 71.097656 185.3125 71.105469 185.25 L 71.3125 183.476562 C 71.320312 183.410156 71.332031 183.34375 71.34375 183.28125 L 71.695312 181.527344 C 71.707031 181.464844 71.722656 181.402344 71.738281 181.335938 L 72.222656 179.617188 C 72.242188 179.554688 72.261719 179.492188 72.285156 179.429688 L 72.902344 177.753906 C 72.925781 177.691406 72.953125 177.632812 72.980469 177.574219 L 73.726562 175.949219 C 73.753906 175.890625 73.785156 175.832031 73.816406 175.777344 L 74.6875 174.214844 C 74.722656 174.160156 74.753906 174.105469 74.792969 174.050781 L 75.785156 172.5625 C 75.820312 172.507812 75.859375 172.457031 75.898438 172.40625 L 77.003906 171 C 77.046875 170.949219 77.089844 170.902344 77.132812 170.851562 L 78.347656 169.539062 C 78.390625 169.492188 78.4375 169.445312 78.484375 169.402344 L 79.796875 168.1875 C 79.84375 168.144531 79.894531 168.101562 79.945312 168.0625 L 81.347656 166.953125 C 81.402344 166.914062 81.453125 166.875 81.507812 166.839844 L 82.992188 165.847656 C 83.046875 165.808594 83.105469 165.777344 83.160156 165.746094 L 84.71875 164.871094 C 84.777344 164.839844 84.835938 164.808594 84.894531 164.78125 L 86.519531 164.035156 C 86.578125 164.007812 86.636719 163.980469 86.699219 163.957031 L 88.375 163.339844 C 88.4375 163.316406 88.5 163.296875 88.5625 163.28125 L 90.28125 162.792969 C 90.34375 162.777344 90.410156 162.761719 90.472656 162.75 L 92.226562 162.398438 C 92.289062 162.386719 92.355469 162.378906 92.417969 162.371094 L 94.195312 162.160156 C 94.257812 162.152344 94.324219 162.148438 94.390625 162.144531 L 96.175781 162.074219 C 96.242188 162.070312 96.304688 162.070312 96.371094 162.074219 L 98.15625 162.144531 C 98.222656 162.148438 98.289062 162.152344 98.351562 162.160156 L 100.128906 162.371094 C 100.191406 162.378906 100.257812 162.386719 100.320312 162.398438 L 102.074219 162.75 C 102.136719 162.761719 102.203125 162.777344 102.265625 162.792969 L 103.984375 163.28125 C 104.046875 163.296875 104.109375 163.316406 104.171875 163.339844 L 105.847656 163.957031 C 105.910156 163.980469 105.96875 164.007812 106.027344 164.035156 L 107.652344 164.78125 C 107.710938 164.808594 107.769531 164.839844 107.828125 164.871094 L 109.386719 165.746094 C 109.441406 165.777344 109.5 165.808594 109.550781 165.847656 L 111.039062 166.839844 C 111.09375 166.875 111.144531 166.914062 111.195312 166.953125 L 112.601562 168.0625 C 112.652344 168.101562 112.703125 168.144531 112.75 168.1875 L 114.0625 169.402344 C 114.109375 169.445312 114.15625 169.492188 114.199219 169.539062 L 115.414062 170.851562 C 115.457031 170.902344 115.5 170.949219 115.539062 171 L 116.648438 172.40625 C 116.6875 172.457031 116.726562 172.507812 116.761719 172.5625 L 117.753906 174.050781 C 117.792969 174.105469 117.824219 174.160156 117.859375 174.21875 L 118.730469 175.777344 C 118.761719 175.832031 118.792969 175.890625 118.820312 175.949219 L 119.566406 177.574219 C 119.59375 177.632812 119.621094 177.691406 119.644531 177.753906 L 120.261719 179.429688 C 120.285156 179.492188 120.304688 179.554688 120.320312 179.617188 L 120.808594 181.335938 C 120.824219 181.402344 120.839844 181.464844 120.851562 181.527344 L 121.203125 183.28125 C 121.214844 183.34375 121.226562 183.410156 121.230469 183.476562 L 121.441406 185.25 C 121.449219 185.3125 121.457031 185.378906 121.457031 185.445312 L 121.527344 187.230469 C 121.582031 188.609375 120.507812 189.773438 119.125 189.828125 C 117.746094 189.882812 116.582031 188.808594 116.527344 187.425781 L 116.457031 185.640625 L 116.472656 185.835938 L 116.265625 184.0625 L 116.292969 184.257812 L 115.945312 182.503906 L 115.992188 182.695312 L 115.507812 180.976562 L 115.566406 181.164062 L 114.949219 179.488281 L 115.023438 179.667969 L 114.277344 178.046875 L 114.367188 178.21875 L 113.492188 176.660156 L 113.59375 176.828125 L 112.601562 175.34375 L 112.71875 175.503906 L 111.613281 174.097656 L 111.738281 174.25 L 110.527344 172.9375 L 110.664062 173.074219 L 109.351562 171.863281 L 109.503906 171.988281 L 108.097656 170.882812 L 108.257812 171 L 106.773438 170.007812 L 106.941406 170.109375 L 105.382812 169.238281 L 105.554688 169.324219 L 103.933594 168.578125 L 104.117188 168.652344 L 102.4375 168.035156 L 102.625 168.09375 L 100.90625 167.609375 L 101.097656 167.65625 L 99.34375 167.308594 L 99.539062 167.339844 L 97.765625 167.128906 L 97.960938 167.144531 L 96.175781 167.074219 L 96.371094 167.074219 L 94.585938 167.144531 L 94.78125 167.128906 L 93.007812 167.339844 L 93.203125 167.308594 L 91.449219 167.65625 L 91.640625 167.609375 L 89.921875 168.09375 L 90.109375 168.035156 L 88.429688 168.652344 L 88.613281 168.578125 L 86.988281 169.324219 L 87.164062 169.238281 L 85.605469 170.109375 L 85.773438 170.007812 L 84.289062 171 L 84.445312 170.882812 L 83.042969 171.988281 L 83.191406 171.863281 L 81.882812 173.074219 L 82.019531 172.9375 L 80.808594 174.25 L 80.933594 174.097656 L 79.828125 175.503906 L 79.945312 175.34375 L 78.953125 176.828125 L 79.054688 176.660156 L 78.179688 178.21875 L 78.269531 178.046875 L 77.523438 179.667969 L 77.597656 179.488281 L 76.980469 181.164062 L 77.039062 180.976562 L 76.554688 182.695312 L 76.601562 182.503906 L 76.253906 184.257812 L 76.28125 184.0625 L 76.074219 185.835938 L 76.089844 185.640625 L 76.019531 187.425781 C 75.964844 188.808594 74.800781 189.882812 73.421875 189.828125 C 72.039062 189.773438 70.964844 188.609375 71.019531 187.230469 Z M 71.019531 187.230469 " fill-opacity="1" fill-rule="nonzero"/><path fill="#1f2937" d="M 185.878906 257.65625 L 183.882812 256.289062 L 184.0625 256.398438 L 181.953125 255.207031 L 182.144531 255.304688 L 179.945312 254.292969 L 180.140625 254.371094 L 177.863281 253.554688 L 178.066406 253.617188 L 175.726562 252.992188 L 175.933594 253.039062 L 173.550781 252.617188 L 173.761719 252.644531 L 171.347656 252.429688 L 171.5625 252.4375 L 169.140625 252.425781 L 169.351562 252.417969 L 166.9375 252.613281 L 167.148438 252.585938 L 164.761719 252.984375 L 164.96875 252.941406 L 162.625 253.542969 L 162.828125 253.480469 L 160.542969 254.28125 L 160.738281 254.199219 L 158.527344 255.191406 L 158.71875 255.09375 L 156.601562 256.269531 L 156.78125 256.160156 L 154.773438 257.507812 L 154.945312 257.382812 L 153.054688 258.898438 L 153.214844 258.757812 L 151.464844 260.429688 L 151.613281 260.277344 L 150.007812 262.089844 L 150.140625 261.925781 L 148.699219 263.871094 L 148.816406 263.691406 L 147.542969 265.753906 L 147.648438 265.566406 L 146.554688 267.726562 L 146.644531 267.535156 L 145.738281 269.78125 L 145.808594 269.578125 L 145.097656 271.894531 L 145.152344 271.6875 L 144.640625 274.054688 L 144.675781 273.84375 L 144.367188 276.246094 L 144.386719 276.035156 L 144.28125 278.453125 L 144.28125 278.242188 L 144.386719 280.660156 L 144.367188 280.449219 L 144.675781 282.851562 L 144.640625 282.640625 L 145.152344 285.007812 L 145.097656 284.800781 L 145.808594 287.117188 L 145.738281 286.917969 L 146.644531 289.164062 L 146.554688 288.96875 L 147.648438 291.128906 L 147.542969 290.941406 L 148.816406 293.003906 L 148.699219 292.828125 L 150.140625 294.769531 L 150.007812 294.605469 L 151.613281 296.421875 L 151.464844 296.265625 L 153.214844 297.9375 L 153.054688 297.796875 L 154.945312 299.3125 L 154.773438 299.1875 L 156.78125 300.539062 L 156.601562 300.425781 L 158.71875 301.601562 L 158.527344 301.507812 L 160.738281 302.496094 L 160.542969 302.417969 L 162.828125 303.214844 L 162.625 303.152344 L 164.96875 303.753906 L 164.761719 303.710938 L 167.148438 304.109375 L 166.9375 304.082031 L 169.351562 304.277344 L 169.140625 304.269531 L 171.5625 304.257812 L 171.347656 304.269531 L 173.761719 304.050781 L 173.550781 304.078125 L 175.933594 303.65625 L 175.726562 303.703125 L 178.066406 303.082031 L 177.863281 303.144531 L 180.140625 302.324219 L 179.945312 302.40625 L 182.144531 301.394531 L 181.957031 301.492188 L 184.0625 300.296875 L 183.882812 300.410156 L 185.878906 299.039062 C 187.019531 298.257812 188.574219 298.550781 189.355469 299.6875 C 190.136719 300.828125 189.847656 302.386719 188.707031 303.167969 L 186.710938 304.535156 C 186.652344 304.574219 186.589844 304.613281 186.53125 304.648438 L 184.421875 305.84375 C 184.359375 305.878906 184.296875 305.910156 184.234375 305.941406 L 182.03125 306.949219 C 181.96875 306.980469 181.902344 307.007812 181.835938 307.03125 L 179.558594 307.851562 C 179.488281 307.875 179.421875 307.898438 179.351562 307.914062 L 177.011719 308.539062 C 176.945312 308.554688 176.875 308.570312 176.804688 308.585938 L 174.421875 309.007812 C 174.351562 309.019531 174.28125 309.027344 174.210938 309.035156 L 171.796875 309.25 C 171.726562 309.257812 171.65625 309.261719 171.585938 309.261719 L 169.164062 309.273438 C 169.09375 309.273438 169.019531 309.269531 168.949219 309.265625 L 166.535156 309.070312 C 166.464844 309.066406 166.394531 309.054688 166.324219 309.042969 L 163.9375 308.644531 C 163.867188 308.632812 163.796875 308.617188 163.726562 308.601562 L 161.382812 308 C 161.3125 307.984375 161.246094 307.960938 161.179688 307.9375 L 158.890625 307.140625 C 158.824219 307.117188 158.757812 307.089844 158.695312 307.0625 L 156.484375 306.070312 C 156.417969 306.042969 156.355469 306.011719 156.292969 305.976562 L 154.175781 304.800781 C 154.113281 304.769531 154.054688 304.730469 153.992188 304.691406 L 151.984375 303.339844 C 151.925781 303.300781 151.867188 303.257812 151.8125 303.214844 L 149.921875 301.699219 C 149.867188 301.65625 149.816406 301.609375 149.761719 301.558594 L 148.011719 299.886719 C 147.960938 299.839844 147.910156 299.789062 147.863281 299.734375 L 146.257812 297.917969 C 146.210938 297.867188 146.167969 297.8125 146.125 297.753906 L 144.679688 295.808594 C 144.640625 295.753906 144.597656 295.695312 144.5625 295.632812 L 143.289062 293.574219 C 143.25 293.511719 143.214844 293.449219 143.183594 293.386719 L 142.089844 291.226562 C 142.058594 291.164062 142.03125 291.097656 142.003906 291.03125 L 141.097656 288.785156 C 141.070312 288.722656 141.046875 288.652344 141.027344 288.585938 L 140.316406 286.269531 C 140.292969 286.203125 140.277344 286.132812 140.261719 286.066406 L 139.75 283.699219 C 139.734375 283.628906 139.722656 283.558594 139.714844 283.488281 L 139.40625 281.085938 C 139.394531 281.015625 139.390625 280.945312 139.386719 280.875 L 139.285156 278.453125 C 139.28125 278.382812 139.28125 278.3125 139.285156 278.242188 L 139.386719 275.824219 C 139.390625 275.75 139.394531 275.679688 139.40625 275.609375 L 139.714844 273.207031 C 139.722656 273.136719 139.734375 273.066406 139.75 273 L 140.261719 270.632812 C 140.277344 270.5625 140.292969 270.492188 140.316406 270.425781 L 141.027344 268.109375 C 141.046875 268.042969 141.070312 267.976562 141.097656 267.910156 L 142.003906 265.664062 C 142.03125 265.597656 142.058594 265.53125 142.089844 265.46875 L 143.183594 263.308594 C 143.214844 263.246094 143.25 263.183594 143.289062 263.121094 L 144.5625 261.0625 C 144.597656 261.003906 144.640625 260.945312 144.679688 260.886719 L 146.125 258.941406 C 146.167969 258.886719 146.210938 258.832031 146.257812 258.777344 L 147.863281 256.960938 C 147.910156 256.910156 147.960938 256.859375 148.011719 256.808594 L 149.761719 255.136719 C 149.816406 255.089844 149.867188 255.042969 149.921875 254.996094 L 151.8125 253.480469 C 151.867188 253.4375 151.925781 253.394531 151.984375 253.355469 L 153.992188 252.003906 C 154.054688 251.964844 154.113281 251.929688 154.175781 251.894531 L 156.292969 250.71875 C 156.355469 250.683594 156.417969 250.652344 156.484375 250.625 L 158.695312 249.632812 C 158.757812 249.605469 158.824219 249.578125 158.890625 249.554688 L 161.179688 248.757812 C 161.246094 248.734375 161.3125 248.714844 161.382812 248.695312 L 163.726562 248.09375 C 163.796875 248.078125 163.867188 248.0625 163.9375 248.050781 L 166.324219 247.652344 C 166.394531 247.640625 166.464844 247.632812 166.535156 247.625 L 168.949219 247.429688 C 169.019531 247.425781 169.09375 247.421875 169.164062 247.421875 L 171.585938 247.433594 C 171.65625 247.433594 171.726562 247.4375 171.796875 247.445312 L 174.210938 247.664062 C 174.28125 247.667969 174.351562 247.679688 174.421875 247.691406 L 176.804688 248.113281 C 176.875 248.125 176.945312 248.140625 177.011719 248.160156 L 179.351562 248.78125 C 179.421875 248.800781 179.488281 248.820312 179.554688 248.84375 L 181.835938 249.664062 C 181.902344 249.6875 181.96875 249.714844 182.03125 249.746094 L 184.234375 250.757812 C 184.296875 250.785156 184.359375 250.820312 184.421875 250.855469 L 186.527344 252.046875 C 186.589844 252.082031 186.652344 252.121094 186.710938 252.160156 L 188.707031 253.53125 C 189.847656 254.3125 190.136719 255.867188 189.355469 257.007812 C 188.574219 258.148438 187.019531 258.4375 185.878906 257.65625 Z M 185.878906 257.65625 " fill-opacity="1" fill-rule="nonzero"/><g clip-path="url(#c9446846ca)"><path fill="#1f2937" d="M 50.761719 184.828125 L 73.519531 184.828125 C 74.898438 184.828125 76.019531 185.949219 76.019531 187.328125 C 76.019531 188.710938 74.898438 189.832031 73.519531 189.832031 L 50.761719 189.832031 C 49.382812 189.832031 48.261719 188.710938 48.261719 187.328125 C 48.261719 185.945312 49.382812 184.828125 50.761719 184.828125 Z M 50.761719 184.828125 " fill-opacity="1" fill-rule="nonzero"/></g><path fill="#1f2937" d="M 119.027344 184.828125 C 117.648438 184.828125 116.527344 185.945312 116.527344 187.328125 C 116.527344 188.710938 117.648438 189.832031 119.027344 189.832031 L 164.539062 189.832031 C 165.917969 189.832031 167.039062 188.710938 167.039062 187.328125 C 167.039062 185.949219 165.917969 184.828125 164.539062 184.828125 Z M 119.027344 184.828125 " fill-opacity="1" fill-rule="nonzero"/><path fill="#1f2937" d="M 187.292969 116.5625 C 185.910156 116.5625 184.792969 117.683594 184.792969 119.0625 L 184.792969 164.574219 C 184.792969 165.957031 185.910156 167.074219 187.292969 167.074219 C 188.675781 167.074219 189.792969 165.957031 189.792969 164.574219 L 189.792969 119.0625 C 189.792969 117.683594 188.675781 116.5625 187.292969 116.5625 Z M 187.292969 116.5625 " fill-opacity="1" fill-rule="nonzero"/><g clip-path="url(#d892af73d1)"><path fill="#1f2937" d="M 189.792969 50.800781 L 189.792969 73.554688 C 189.792969 74.9375 188.675781 76.054688 187.292969 76.054688 C 185.910156 76.054688 184.792969 74.9375 184.792969 73.554688 L 184.792969 50.800781 C 184.792969 49.417969 185.910156 48.296875 187.292969 48.296875 C 188.675781 48.296875 189.792969 49.417969 189.792969 50.800781 Z M 189.792969 50.800781 " fill-opacity="1" fill-rule="nonzero"/></g><path fill="#1f2937" d="M 210.046875 184.828125 L 232.804688 184.828125 C 234.183594 184.828125 235.304688 185.949219 235.304688 187.328125 C 235.304688 188.710938 234.183594 189.832031 232.804688 189.832031 L 210.046875 189.832031 C 208.667969 189.832031 207.546875 188.710938 207.546875 187.328125 C 207.546875 185.945312 208.667969 184.828125 210.046875 184.828125 Z M 210.046875 184.828125 " fill-opacity="1" fill-rule="nonzero"/><g clip-path="url(#a22f726db3)"><path fill="#1f2937" d="M 278.3125 184.828125 C 276.929688 184.828125 275.8125 185.945312 275.8125 187.328125 C 275.8125 188.710938 276.929688 189.832031 278.3125 189.832031 L 323.824219 189.832031 C 325.203125 189.832031 326.324219 188.710938 326.324219 187.328125 C 326.324219 185.949219 325.203125 184.828125 323.824219 184.828125 Z M 278.3125 184.828125 " fill-opacity="1" fill-rule="nonzero"/></g><path fill="#1f2937" d="M 187.292969 207.582031 C 185.910156 207.582031 184.792969 208.703125 184.792969 210.082031 L 184.792969 255.59375 C 184.792969 256.976562 185.910156 258.09375 187.292969 258.09375 C 188.675781 258.09375 189.792969 256.976562 189.792969 255.59375 L 189.792969 210.082031 C 189.792969 208.703125 188.675781 207.582031 187.292969 207.582031 Z M 187.292969 207.582031 " fill-opacity="1" fill-rule="nonzero"/><g clip-path="url(#785316b66b)"><path fill="#1f2937" d="M 189.792969 301.101562 L 189.792969 323.859375 C 189.792969 325.238281 188.675781 326.359375 187.292969 326.359375 C 185.910156 326.359375 184.792969 325.238281 184.792969 323.859375 L 184.792969 301.101562 C 184.792969 299.722656 185.910156 298.601562 187.292969 298.601562 C 188.675781 298.601562 189.792969 299.722656 189.792969 301.101562 Z M 189.792969 301.101562 " fill-opacity="1" fill-rule="nonzero"/></g></svg>