<svg xmlns="http://www.w3.org/2000/svg" xmlns:xlink="http://www.w3.org/1999/xlink" width="500" zoomAndPan="magnify" viewBox="0 0 375 374.999991" height="500" preserveAspectRatio="xMidYMid meet" version="1.0"><defs><clipPath id="84a1380d0a"><path d="M 37.5 37.5 L 337.5 37.5 L 337.5 337.5 L 37.5 337.5 Z M 37.5 37.5 " clip-rule="nonzero"/></clipPath></defs><g clip-path="url(#84a1380d0a)"><path fill="#1f2937" d="M 337.261719 198.238281 L 337.261719 90.839844 C 337.261719 87.5 337.261719 84.160156 337.261719 81.054688 C 337.261719 80.816406 337.5 80.339844 337.5 80.101562 C 337.5 79.863281 337.5 79.386719 337.261719 79.148438 C 337.261719 71.269531 337.261719 63.394531 337.261719 55.519531 C 337.261719 45.734375 329.625 37.859375 319.839844 37.621094 C 319.839844 37.621094 319.601562 37.621094 319.601562 37.621094 L 56.59375 37.621094 C 55.636719 37.621094 54.683594 37.621094 53.96875 37.621094 C 44.898438 38.097656 37.5 45.734375 37.5 54.804688 C 37.5 57.429688 37.5 60.054688 37.5 62.679688 L 37.5 315.902344 C 37.5 322.105469 37.976562 328.3125 42.988281 332.847656 C 48 337.378906 53.25 337.378906 59.21875 337.378906 L 319.839844 337.378906 C 329.148438 337.140625 336.785156 329.742188 337.023438 320.4375 C 337.023438 319.71875 337.023438 318.765625 337.023438 318.050781 L 337.023438 200.148438 C 337.023438 199.910156 337.261719 199.433594 337.261719 199.195312 C 337.261719 198.957031 337.5 198.476562 337.261719 198.238281 Z M 43.464844 82.964844 L 298.121094 82.964844 C 309.097656 82.964844 320.316406 83.441406 331.292969 82.964844 L 331.292969 196.09375 L 76.878906 196.09375 C 65.664062 196.09375 54.683594 195.613281 43.464844 196.09375 L 43.464844 86.785156 C 43.464844 85.589844 43.464844 84.160156 43.464844 82.964844 Z M 43.464844 55.042969 C 43.464844 48.835938 48.480469 43.585938 54.921875 43.585938 L 281.652344 43.585938 C 294.0625 43.585938 306.472656 43.585938 318.882812 43.585938 C 325.328125 43.109375 330.816406 48.121094 331.292969 54.5625 C 331.292969 54.804688 331.292969 55.28125 331.292969 55.519531 C 331.292969 59.335938 331.292969 63.15625 331.292969 66.976562 L 331.292969 76.761719 L 76.878906 76.761719 C 65.664062 76.761719 54.683594 76.28125 43.464844 76.761719 C 43.464844 69.601562 43.464844 62.441406 43.464844 55.042969 Z M 331.292969 320.195312 C 331.292969 326.402344 326.28125 331.652344 320.078125 331.652344 L 60.890625 331.652344 C 57.308594 331.652344 53.011719 332.128906 49.671875 330.460938 C 43.707031 327.355469 43.707031 321.628906 43.707031 315.902344 L 43.707031 202.296875 L 298.359375 202.296875 C 309.335938 202.296875 320.554688 202.773438 331.535156 202.296875 L 331.535156 317.332031 C 331.292969 318.289062 331.292969 319.242188 331.292969 320.195312 Z M 331.292969 320.195312 " fill-opacity="1" fill-rule="nonzero"/></g><path fill="#1f2937" d="M 134.875 272.703125 L 134.875 238.335938 C 134.875 234.992188 134.875 231.652344 134.875 228.550781 C 135.113281 222.820312 130.578125 218.050781 124.851562 217.808594 C 116.496094 217.570312 108.144531 217.808594 99.792969 217.808594 C 90.722656 217.808594 81.414062 217.570312 72.34375 217.808594 C 66.617188 217.570312 61.84375 222.105469 61.605469 227.835938 C 61.605469 227.835938 61.605469 227.835938 61.605469 228.074219 C 61.605469 230.699219 61.605469 233.324219 61.605469 235.949219 L 61.605469 282.25 C 61.605469 287.023438 63.035156 291.320312 67.570312 293.464844 C 70.4375 294.421875 73.539062 294.660156 76.640625 294.421875 L 124.613281 294.421875 C 124.851562 294.421875 125.089844 294.421875 125.328125 294.183594 C 130.816406 293.707031 135.113281 289.171875 134.875 283.441406 C 134.875 283.441406 134.875 283.203125 134.875 283.203125 C 134.875 279.863281 134.875 276.28125 134.875 272.703125 Z M 128.90625 283.921875 C 128.90625 286.308594 127 288.214844 124.613281 288.214844 L 74.492188 288.214844 C 71.390625 288.214844 67.808594 288.214844 67.332031 283.921875 C 67.09375 282.011719 67.332031 279.863281 67.332031 277.953125 L 67.332031 233.324219 C 67.09375 231.175781 67.09375 228.789062 67.570312 226.640625 C 68.765625 223.300781 72.34375 224.015625 75.207031 224.015625 L 119.363281 224.015625 C 121.75 223.777344 124.136719 223.777344 126.519531 224.492188 C 129.386719 225.925781 128.90625 229.265625 128.90625 231.890625 L 128.90625 261.484375 C 128.90625 268.644531 129.148438 276.28125 128.90625 283.921875 Z M 128.90625 283.921875 " fill-opacity="1" fill-rule="nonzero"/><path fill="#1f2937" d="M 119.601562 300.148438 L 76.878906 300.148438 C 75.207031 300.148438 74.015625 301.582031 74.015625 303.011719 C 74.015625 304.445312 75.449219 305.878906 76.878906 305.878906 L 119.601562 305.878906 C 121.269531 305.878906 122.464844 304.445312 122.464844 303.011719 C 122.464844 301.582031 121.269531 300.148438 119.601562 300.148438 Z M 119.601562 300.148438 " fill-opacity="1" fill-rule="nonzero"/><path fill="#1f2937" d="M 119.601562 309.933594 L 76.878906 309.933594 C 75.207031 309.933594 74.015625 311.367188 74.015625 312.796875 C 74.015625 314.46875 75.449219 315.664062 76.878906 315.664062 L 119.601562 315.664062 C 121.269531 315.664062 122.464844 314.230469 122.464844 312.796875 C 122.464844 311.367188 121.269531 309.933594 119.601562 309.933594 Z M 119.601562 309.933594 " fill-opacity="1" fill-rule="nonzero"/><path fill="#1f2937" d="M 224.136719 272.703125 L 224.136719 238.335938 C 224.136719 234.992188 224.136719 231.652344 224.136719 228.550781 C 224.375 222.820312 219.839844 218.050781 214.109375 217.808594 C 205.757812 217.570312 197.40625 217.808594 189.050781 217.808594 C 179.980469 217.808594 170.675781 217.570312 161.605469 217.808594 C 155.878906 217.570312 151.105469 222.34375 151.105469 228.074219 C 151.105469 230.699219 151.105469 233.324219 151.105469 235.949219 L 151.105469 282.25 C 151.105469 287.023438 152.535156 291.320312 157.070312 293.464844 C 159.933594 294.421875 163.035156 294.660156 166.140625 294.421875 L 214.109375 294.421875 C 214.351562 294.421875 214.589844 294.421875 214.828125 294.183594 C 220.316406 293.707031 224.375 288.933594 224.136719 283.441406 C 224.136719 283.441406 224.136719 283.441406 224.136719 283.203125 C 224.136719 279.863281 224.136719 276.28125 224.136719 272.703125 Z M 218.167969 283.921875 C 218.167969 286.308594 216.257812 288.214844 213.871094 288.214844 L 163.753906 288.214844 C 160.648438 288.214844 157.070312 288.214844 156.59375 283.921875 C 156.355469 282.011719 156.59375 279.863281 156.59375 277.953125 L 156.59375 233.324219 C 156.355469 231.175781 156.355469 228.789062 156.832031 226.640625 C 158.023438 223.300781 161.605469 224.015625 164.46875 224.015625 L 208.621094 224.015625 C 211.007812 223.777344 213.394531 223.777344 215.78125 224.492188 C 218.644531 225.925781 218.167969 229.265625 218.167969 231.890625 L 218.167969 261.484375 C 218.167969 268.644531 218.644531 276.28125 218.167969 283.921875 Z M 218.167969 283.921875 " fill-opacity="1" fill-rule="nonzero"/><path fill="#1f2937" d="M 208.859375 300.148438 L 166.140625 300.148438 C 164.46875 300.148438 163.277344 301.582031 163.277344 303.011719 C 163.277344 304.445312 164.707031 305.878906 166.140625 305.878906 L 208.859375 305.878906 C 210.53125 305.878906 211.722656 304.445312 211.722656 303.011719 C 211.722656 301.582031 210.53125 300.148438 208.859375 300.148438 Z M 208.859375 300.148438 " fill-opacity="1" fill-rule="nonzero"/><path fill="#1f2937" d="M 208.859375 309.933594 L 166.140625 309.933594 C 164.46875 309.933594 163.277344 311.367188 163.277344 312.796875 C 163.277344 314.46875 164.707031 315.664062 166.140625 315.664062 L 208.859375 315.664062 C 210.53125 315.664062 211.722656 314.230469 211.722656 312.796875 C 211.722656 311.367188 210.53125 309.933594 208.859375 309.933594 Z M 208.859375 309.933594 " fill-opacity="1" fill-rule="nonzero"/><path fill="#1f2937" d="M 313.394531 272.703125 L 313.394531 238.335938 C 313.394531 234.992188 313.394531 231.652344 313.394531 228.550781 C 313.632812 222.820312 309.097656 218.050781 303.371094 217.808594 C 295.019531 217.570312 286.664062 217.808594 278.3125 217.808594 C 269.242188 217.808594 259.933594 217.570312 250.863281 217.808594 C 245.136719 217.808594 240.363281 222.34375 240.363281 228.074219 C 240.363281 230.699219 240.363281 233.324219 240.363281 235.949219 L 240.363281 282.25 C 240.363281 287.023438 241.796875 291.320312 246.332031 293.464844 C 249.195312 294.421875 252.296875 294.660156 255.398438 294.421875 L 303.371094 294.421875 C 303.609375 294.421875 303.847656 294.421875 304.324219 294.183594 C 309.578125 293.464844 313.632812 288.933594 313.394531 283.441406 C 313.394531 283.441406 313.394531 283.441406 313.394531 283.203125 C 313.394531 279.863281 313.394531 276.28125 313.394531 272.703125 Z M 307.429688 283.921875 C 307.429688 286.308594 305.519531 288.214844 303.132812 288.214844 L 253.011719 288.214844 C 249.910156 288.214844 246.332031 288.214844 245.851562 283.921875 C 245.613281 282.011719 245.851562 279.863281 245.851562 277.953125 L 245.851562 233.324219 C 245.613281 231.175781 245.613281 228.789062 246.09375 226.640625 C 247.285156 223.300781 250.863281 224.015625 253.730469 224.015625 L 297.644531 224.015625 C 300.03125 223.777344 302.417969 223.777344 304.804688 224.492188 C 307.667969 225.925781 307.191406 229.265625 307.191406 231.890625 L 307.191406 261.484375 C 307.429688 268.644531 307.90625 276.28125 307.429688 283.921875 Z M 307.429688 283.921875 " fill-opacity="1" fill-rule="nonzero"/><path fill="#1f2937" d="M 298.121094 300.148438 L 255.398438 300.148438 C 253.730469 300.148438 252.535156 301.582031 252.535156 303.011719 C 252.535156 304.445312 253.96875 305.878906 255.398438 305.878906 L 298.121094 305.878906 C 299.792969 305.878906 300.984375 304.445312 300.984375 303.011719 C 300.984375 301.582031 299.792969 300.148438 298.121094 300.148438 Z M 298.121094 300.148438 " fill-opacity="1" fill-rule="nonzero"/><path fill="#1f2937" d="M 298.121094 309.933594 L 255.398438 309.933594 C 253.730469 309.933594 252.535156 311.367188 252.535156 312.796875 C 252.535156 314.46875 253.96875 315.664062 255.398438 315.664062 L 298.121094 315.664062 C 299.792969 315.664062 300.984375 314.230469 300.984375 312.796875 C 301.222656 311.367188 299.792969 309.933594 298.121094 309.933594 Z M 298.121094 309.933594 " fill-opacity="1" fill-rule="nonzero"/><path fill="#1f2937" d="M 72.582031 61.246094 C 72.582031 61.246094 72.582031 61.007812 72.582031 61.246094 C 72.582031 61.007812 72.582031 61.007812 72.582031 61.007812 C 72.34375 61.007812 72.34375 61.246094 72.582031 61.246094 Z M 72.582031 61.246094 " fill-opacity="1" fill-rule="nonzero"/><path fill="#1f2937" d="M 76.164062 67.929688 C 77.59375 66.019531 78.550781 63.871094 78.550781 61.484375 C 78.550781 61.007812 78.550781 60.53125 78.3125 60.292969 C 77.835938 56.710938 75.207031 53.371094 71.628906 52.179688 C 67.808594 50.746094 63.515625 51.9375 60.890625 55.042969 C 57.308594 59.335938 57.785156 65.542969 62.082031 69.121094 C 66.140625 72.703125 72.582031 72.226562 76.164062 67.929688 Z M 64.230469 61.246094 C 64.230469 61.007812 64.230469 61.007812 64.230469 60.769531 C 64.230469 60.53125 64.46875 60.054688 64.46875 59.816406 L 64.707031 59.335938 L 64.945312 58.859375 C 65.183594 58.621094 65.421875 58.382812 65.664062 58.144531 C 65.664062 58.144531 65.902344 58.144531 65.902344 58.144531 C 66.140625 58.144531 66.855469 57.667969 66.855469 57.667969 C 66.855469 57.667969 66.140625 57.90625 66.617188 57.667969 L 67.09375 57.429688 L 67.332031 57.429688 C 67.332031 57.429688 67.332031 57.429688 67.570312 57.429688 C 67.570312 57.429688 67.808594 57.429688 67.808594 57.429688 L 68.765625 57.429688 L 69.71875 57.667969 L 70.195312 57.90625 L 70.4375 58.144531 L 71.152344 58.859375 C 71.152344 59.097656 71.390625 59.097656 71.390625 59.335938 L 71.628906 59.816406 C 71.867188 60.292969 71.867188 60.53125 71.867188 60.769531 C 71.867188 60.769531 71.867188 61.007812 71.867188 61.007812 C 71.867188 61.246094 71.867188 61.246094 71.867188 61.246094 C 71.867188 61.484375 71.867188 61.484375 71.867188 61.722656 C 71.867188 61.964844 71.867188 61.964844 71.867188 62.203125 C 71.867188 62.441406 71.628906 62.679688 71.628906 62.917969 C 71.628906 62.917969 71.628906 63.15625 71.628906 63.15625 C 71.628906 63.15625 71.628906 63.15625 71.390625 63.394531 C 71.152344 63.871094 71.152344 64.109375 70.914062 64.351562 C 70.914062 64.351562 70.675781 64.589844 70.675781 64.589844 L 70.4375 64.828125 C 70.195312 64.828125 69.957031 65.304688 69.71875 65.304688 L 69.480469 65.542969 L 68.527344 65.78125 C 68.289062 65.78125 68.289062 65.78125 68.289062 65.78125 C 68.050781 65.78125 67.808594 65.78125 67.332031 65.78125 L 66.855469 65.78125 L 66.378906 65.542969 C 65.902344 65.304688 66.617188 65.542969 66.617188 65.542969 C 66.617188 65.542969 65.902344 65.304688 65.902344 65.066406 L 65.664062 64.828125 C 65.421875 64.589844 65.183594 64.351562 64.945312 64.109375 C 64.945312 64.109375 65.183594 64.589844 64.945312 64.351562 L 64.707031 63.871094 L 64.46875 63.394531 L 64.46875 63.15625 C 64.46875 62.917969 64.46875 62.917969 64.46875 63.15625 C 64.46875 62.917969 64.230469 62.679688 64.230469 62.441406 C 64.230469 62.203125 64.230469 62.203125 64.230469 61.964844 C 64.230469 61.722656 64.230469 61.484375 64.230469 61.246094 Z M 64.230469 61.246094 " fill-opacity="1" fill-rule="nonzero"/><path fill="#1f2937" d="M 64.230469 61.246094 C 64.46875 60.53125 64.230469 60.769531 64.230469 61.246094 Z M 64.230469 61.246094 " fill-opacity="1" fill-rule="nonzero"/><path fill="#1f2937" d="M 100.269531 68.167969 C 101.9375 66.257812 102.65625 64.109375 102.65625 61.722656 C 102.65625 57.429688 100.03125 53.609375 95.972656 52.179688 C 92.152344 50.746094 87.621094 51.9375 84.992188 55.042969 C 81.414062 59.335938 81.890625 65.542969 85.949219 69.363281 C 90.246094 72.941406 96.6875 72.464844 100.269531 68.167969 Z M 88.335938 61.246094 C 88.335938 61.007812 88.335938 61.007812 88.335938 60.769531 C 88.335938 60.53125 88.574219 60.054688 88.574219 59.816406 L 88.8125 59.335938 L 89.050781 58.859375 C 89.050781 58.859375 89.527344 58.144531 89.765625 58.144531 C 89.765625 58.144531 89.765625 58.144531 90.007812 58.144531 C 90.246094 57.90625 90.722656 57.90625 90.960938 57.667969 C 90.960938 57.667969 90.246094 57.90625 90.722656 57.667969 L 91.199219 57.429688 L 91.4375 57.429688 C 91.4375 57.429688 91.4375 57.429688 91.675781 57.429688 C 91.675781 57.429688 91.914062 57.429688 91.914062 57.429688 L 92.871094 57.429688 L 94.0625 57.667969 C 94.539062 57.90625 94.539062 57.90625 94.539062 57.90625 L 94.777344 58.144531 C 95.019531 58.382812 95.257812 58.621094 95.496094 58.859375 C 95.496094 59.097656 95.734375 59.097656 95.734375 59.335938 C 95.734375 59.578125 95.972656 59.578125 95.972656 59.816406 C 96.6875 60.53125 96.6875 60.769531 96.6875 61.007812 C 96.6875 61.007812 96.6875 61.246094 96.6875 61.246094 C 96.6875 61.484375 96.6875 61.484375 96.6875 61.484375 C 96.6875 61.722656 96.6875 61.722656 96.6875 61.964844 C 96.6875 61.964844 96.6875 62.203125 96.6875 62.203125 C 96.6875 62.203125 96.449219 62.917969 96.449219 63.15625 C 96.449219 63.15625 96.449219 63.394531 96.449219 63.394531 C 96.449219 63.394531 96.449219 63.394531 96.210938 63.632812 C 95.972656 63.871094 95.734375 64.351562 95.734375 64.589844 C 95.734375 64.589844 95.496094 64.828125 95.496094 64.828125 C 95.496094 64.828125 95.257812 65.066406 95.257812 65.066406 C 95.019531 65.066406 94.777344 65.542969 94.539062 65.542969 L 94.300781 65.304688 L 93.347656 65.542969 C 92.871094 65.542969 93.347656 65.542969 93.347656 65.542969 C 93.347656 65.542969 92.871094 65.542969 92.871094 65.542969 C 92.632812 65.542969 92.394531 65.542969 91.914062 65.542969 C 91.914062 65.542969 91.914062 65.542969 91.675781 65.542969 L 91.199219 65.542969 L 90.722656 65.304688 C 90.246094 65.066406 90.960938 65.304688 90.960938 65.304688 C 90.722656 65.066406 90.484375 65.066406 90.246094 64.828125 L 89.765625 64.589844 C 89.527344 64.351562 89.289062 64.109375 89.050781 63.871094 C 89.050781 63.871094 89.050781 64.109375 89.050781 63.871094 L 88.8125 63.632812 C 88.8125 63.632812 88.574219 63.394531 88.574219 63.394531 L 88.574219 63.15625 C 88.574219 62.917969 88.574219 62.917969 88.574219 63.394531 C 88.574219 63.394531 88.335938 62.679688 88.335938 62.441406 L 88.335938 61.964844 C 88.335938 61.722656 88.335938 61.484375 88.335938 61.246094 Z M 88.335938 61.246094 " fill-opacity="1" fill-rule="nonzero"/><path fill="#1f2937" d="M 88.335938 61.246094 C 88.574219 60.53125 88.335938 61.007812 88.335938 61.246094 Z M 88.335938 61.246094 " fill-opacity="1" fill-rule="nonzero"/><path fill="#1f2937" d="M 118.882812 71.507812 C 123.65625 70.554688 126.761719 66.496094 127 61.722656 C 127 61.484375 127 61.246094 126.761719 61.007812 C 126.523438 56.949219 123.894531 53.609375 120.078125 52.179688 C 114.828125 50.507812 109.097656 53.371094 107.191406 58.621094 C 106.234375 61.484375 106.472656 64.351562 108.144531 66.976562 C 110.53125 70.554688 114.828125 72.464844 118.882812 71.507812 Z M 112.679688 61.246094 C 112.679688 61.007812 112.679688 61.007812 112.679688 60.769531 C 112.679688 60.53125 112.917969 60.054688 112.917969 59.816406 L 113.15625 59.335938 L 113.394531 58.859375 C 113.394531 58.859375 113.871094 58.144531 114.109375 58.144531 C 114.109375 58.144531 114.351562 57.90625 114.351562 57.90625 C 114.589844 57.667969 115.066406 57.667969 115.304688 57.429688 C 115.304688 57.429688 114.589844 57.667969 115.066406 57.429688 L 115.542969 57.191406 L 115.78125 57.191406 C 115.78125 57.191406 115.78125 57.191406 116.019531 57.191406 C 116.019531 57.191406 116.257812 57.191406 116.257812 57.191406 L 117.214844 57.191406 L 118.40625 57.429688 C 118.882812 57.667969 118.882812 57.667969 118.882812 57.667969 C 118.882812 57.667969 119.121094 57.667969 119.121094 57.90625 L 119.363281 57.90625 L 120.078125 58.621094 C 120.078125 58.859375 120.316406 58.859375 120.316406 59.097656 L 120.554688 59.578125 C 120.792969 60.054688 120.792969 60.292969 120.792969 60.53125 C 121.03125 60.292969 120.792969 61.246094 120.792969 61.246094 C 120.792969 61.246094 120.792969 61.484375 120.792969 61.484375 C 120.792969 61.722656 120.554688 61.964844 120.554688 62.203125 C 120.554688 62.203125 120.554688 62.441406 120.554688 62.441406 C 120.554688 62.441406 120.554688 62.441406 120.316406 62.679688 L 119.839844 63.632812 C 119.839844 63.632812 119.601562 63.871094 119.601562 63.871094 L 119.363281 64.109375 C 119.121094 64.351562 118.882812 64.589844 118.644531 64.589844 L 118.40625 64.828125 L 117.453125 65.066406 C 117.214844 65.066406 117.214844 65.066406 116.976562 65.066406 C 116.734375 65.066406 116.257812 65.066406 116.019531 65.066406 L 115.78125 65.066406 L 115.304688 64.828125 C 114.828125 64.589844 115.542969 64.828125 115.542969 64.828125 C 115.542969 64.828125 114.828125 64.589844 114.828125 64.351562 C 114.589844 64.351562 114.589844 64.109375 114.351562 64.109375 C 114.109375 63.871094 113.871094 63.632812 113.632812 63.394531 C 113.632812 63.394531 113.632812 63.632812 113.632812 63.394531 L 113.394531 62.917969 C 113.394531 62.917969 113.394531 62.679688 113.15625 62.679688 L 113.15625 62.441406 C 113.15625 62.203125 113.15625 62.203125 113.15625 62.441406 C 113.15625 62.203125 112.917969 61.964844 112.917969 61.722656 L 112.917969 61.246094 C 112.679688 61.722656 112.679688 61.484375 112.679688 61.246094 Z M 112.679688 61.246094 " fill-opacity="1" fill-rule="nonzero"/><path fill="#1f2937" d="M 121.03125 61.007812 C 120.792969 61.246094 121.03125 61.484375 121.03125 61.007812 Z M 121.03125 61.007812 " fill-opacity="1" fill-rule="nonzero"/><path fill="#1f2937" d="M 112.679688 61.246094 C 112.917969 60.53125 112.679688 61.007812 112.679688 61.246094 Z M 112.679688 61.246094 " fill-opacity="1" fill-rule="nonzero"/><path fill="#1f2937" d="M 176.164062 71.507812 L 242.035156 71.507812 C 263.277344 71.507812 284.277344 71.988281 305.519531 71.507812 L 306.710938 71.507812 C 311.722656 71.507812 316.019531 67.691406 316.734375 62.679688 C 317.214844 58.144531 314.589844 53.609375 310.292969 51.9375 C 307.90625 51.222656 305.757812 50.984375 303.371094 51.222656 L 194.539062 51.222656 C 187.859375 51.222656 181.175781 50.984375 174.730469 51.222656 C 169.003906 51.222656 164.46875 55.757812 164.46875 61.246094 C 164.46875 62.917969 164.945312 64.589844 165.664062 66.257812 C 168.050781 70.554688 171.867188 71.507812 176.164062 71.507812 Z M 176.640625 57.429688 L 291.914062 57.429688 C 296.6875 57.429688 301.460938 56.949219 306.234375 57.429688 C 308.621094 57.667969 310.292969 59.578125 310.054688 61.964844 C 309.816406 64.109375 308.382812 65.542969 306.234375 65.78125 L 176.640625 65.78125 C 173.777344 65.78125 170.195312 65.542969 170.195312 61.722656 C 170.195312 57.90625 174.015625 57.429688 176.640625 57.429688 Z M 176.640625 57.429688 " fill-opacity="1" fill-rule="nonzero"/><path fill="#1f2937" d="M 100.269531 173.179688 L 140.125 145.972656 L 179.742188 173.179688 C 182.847656 175.328125 185.949219 170.316406 182.847656 167.929688 L 157.546875 150.746094 L 194.777344 125.449219 L 234.636719 152.65625 C 237.738281 154.804688 240.839844 149.792969 237.738281 147.40625 L 196.210938 119.242188 C 195.257812 118.765625 194.0625 118.765625 193.109375 119.242188 L 152.296875 147.164062 L 141.558594 139.765625 C 140.601562 139.289062 139.410156 139.289062 138.453125 139.765625 L 97.164062 168.167969 C 94.0625 170.316406 97.164062 175.566406 100.269531 173.179688 Z M 100.269531 173.179688 " fill-opacity="1" fill-rule="nonzero"/><path fill="#1f2937" d="M 265.183594 124.253906 C 266.855469 122.105469 267.808594 119.480469 267.808594 116.855469 C 267.808594 112.082031 264.707031 107.785156 260.171875 106.117188 C 255.878906 104.445312 250.863281 105.878906 247.761719 109.457031 C 243.707031 114.230469 244.183594 121.390625 248.957031 125.449219 C 253.730469 129.503906 261.128906 129.027344 265.183594 124.253906 Z M 251.34375 116.140625 L 251.34375 115.902344 C 251.34375 115.664062 251.34375 115.664062 251.34375 115.664062 C 251.34375 115.664062 251.34375 115.421875 251.34375 115.421875 C 251.582031 115.183594 251.582031 114.945312 251.820312 114.707031 C 251.820312 114.707031 251.820312 114.707031 251.820312 114.46875 C 251.820312 114.230469 252.058594 113.992188 252.058594 113.992188 C 252.058594 113.992188 252.773438 113.035156 252.296875 113.515625 C 252.535156 113.277344 252.773438 113.035156 253.011719 112.796875 C 253.011719 112.796875 253.25 112.558594 253.25 112.558594 C 253.25 112.320312 253.96875 111.84375 254.445312 111.84375 L 255.160156 111.605469 L 255.636719 111.605469 C 255.636719 111.605469 256.355469 111.367188 255.878906 111.605469 C 255.398438 111.84375 256.117188 111.605469 256.117188 111.605469 L 257.308594 111.605469 L 258.503906 112.082031 C 258.742188 112.320312 258.980469 112.320312 259.21875 112.320312 L 259.695312 112.558594 L 259.933594 112.796875 L 260.648438 113.515625 C 260.648438 113.753906 260.890625 113.992188 261.128906 113.992188 L 261.367188 114.46875 C 261.605469 114.945312 261.605469 115.421875 261.84375 115.664062 C 261.84375 115.902344 261.84375 116.378906 261.84375 116.617188 C 261.84375 116.855469 261.84375 116.855469 261.84375 116.855469 C 261.84375 117.332031 261.84375 117.570312 261.605469 118.050781 C 261.605469 118.289062 261.605469 118.527344 261.367188 118.765625 C 261.367188 118.765625 261.605469 118.289062 261.367188 118.765625 C 261.128906 119.242188 260.890625 119.480469 260.648438 119.957031 L 260.410156 120.4375 C 260.410156 120.4375 259.933594 120.914062 259.933594 120.914062 C 259.695312 121.152344 259.457031 121.152344 259.21875 121.390625 L 258.980469 121.628906 C 258.980469 121.628906 258.980469 121.628906 258.742188 121.628906 C 258.023438 121.867188 258.023438 121.867188 257.546875 121.867188 C 257.308594 121.867188 257.070312 121.867188 257.070312 121.867188 L 255.878906 121.867188 L 255.160156 121.628906 L 254.445312 121.390625 C 254.207031 121.390625 253.730469 121.152344 253.492188 120.914062 L 253.011719 120.675781 L 252.296875 119.957031 C 252.296875 119.957031 252.058594 119.957031 252.058594 119.71875 L 251.820312 119.480469 C 251.820312 119.480469 251.582031 119.242188 251.582031 119.003906 C 251.34375 118.765625 251.34375 118.289062 251.34375 118.050781 C 251.34375 117.808594 251.34375 117.808594 251.34375 117.570312 C 251.34375 117.570312 251.34375 117.570312 251.34375 117.332031 C 251.34375 116.855469 251.34375 116.617188 251.34375 116.140625 Z M 251.34375 116.140625 " fill-opacity="1" fill-rule="nonzero"/><path fill="#1f2937" d="M 252.296875 119.957031 C 252.535156 120.195312 252.535156 120.195312 252.296875 119.957031 Z M 252.296875 119.957031 " fill-opacity="1" fill-rule="nonzero"/><path fill="#1f2937" d="M 254.683594 111.84375 C 254.683594 111.84375 254.207031 112.082031 254.683594 111.84375 Z M 254.683594 111.84375 " fill-opacity="1" fill-rule="nonzero"/></svg>