<svg xmlns="http://www.w3.org/2000/svg" xmlns:xlink="http://www.w3.org/1999/xlink" width="500" zoomAndPan="magnify" viewBox="0 0 375 374.999991" height="500" preserveAspectRatio="xMidYMid meet" version="1.0"><defs><clipPath id="8fadfe9786"><path d="M 131 26.210938 L 252 26.210938 L 252 131 L 131 131 Z M 131 26.210938 " clip-rule="nonzero"/></clipPath><clipPath id="3ee771ee33"><path d="M 38 220 L 214 220 L 214 348.710938 L 38 348.710938 Z M 38 220 " clip-rule="nonzero"/></clipPath><clipPath id="d8ffbf009f"><path d="M 133 306 L 177 306 L 177 348.710938 L 133 348.710938 Z M 133 306 " clip-rule="nonzero"/></clipPath></defs><g clip-path="url(#8fadfe9786)"><path fill="#1f2937" d="M 162.667969 33.011719 C 153.074219 33.011719 143.761719 38.398438 139.882812 46.253906 C 134.898438 56.332031 138.625 68.3125 143.773438 76.167969 C 149.460938 84.839844 157.972656 91.671875 166.203125 98.28125 L 170.824219 101.980469 C 177.871094 107.605469 185.703125 113.847656 191.078125 121.523438 C 196.441406 113.847656 204.269531 107.605469 211.320312 101.980469 L 215.9375 98.292969 C 224.160156 91.671875 232.679688 84.839844 238.371094 76.167969 C 243.519531 68.3125 247.257812 56.332031 242.257812 46.253906 C 238.308594 38.261719 228.675781 32.835938 218.945312 33.011719 C 208.347656 33.238281 198.453125 42.730469 193.507812 48.367188 C 192.273438 49.765625 189.867188 49.765625 188.636719 48.367188 C 183.6875 42.730469 173.78125 33.238281 163.195312 33.011719 C 163.019531 33.011719 162.84375 33.011719 162.667969 33.011719 Z M 191.078125 130.988281 C 189.855469 130.988281 188.75 130.308594 188.195312 129.226562 C 183.726562 120.554688 175.117188 113.683594 166.78125 107.039062 L 162.152344 103.324219 C 153.527344 96.402344 144.617188 89.242188 138.359375 79.714844 C 132.230469 70.367188 127.875 55.917969 134.078125 43.382812 C 139.179688 33.050781 150.871094 26.21875 163.320312 26.542969 C 174.738281 26.785156 184.910156 35.066406 191.078125 41.445312 C 197.234375 35.066406 207.402344 26.785156 218.820312 26.542969 C 231.15625 26.203125 242.964844 33.050781 248.0625 43.382812 C 254.269531 55.917969 249.914062 70.367188 243.78125 79.714844 C 237.527344 89.242188 228.613281 96.402344 219.992188 103.339844 L 215.359375 107.039062 C 207.027344 113.683594 198.417969 120.554688 193.949219 129.226562 C 193.394531 130.308594 192.285156 130.988281 191.078125 130.988281 " fill-opacity="1" fill-rule="nonzero"/></g><path fill="#1f2937" d="M 275.125 237.695312 C 236.746094 237.695312 210.800781 200.078125 210.460938 199.589844 C 205.136719 192.300781 199.902344 188.777344 195.015625 189.15625 C 187.617188 189.746094 182.429688 199.023438 181.863281 200.066406 C 177.03125 211.734375 170.671875 219.132812 162.945312 222.054688 C 156.8125 224.382812 149.902344 223.804688 142.953125 220.390625 C 137.089844 217.511719 134.191406 210.738281 136.070312 204.308594 L 142.789062 181.203125 C 146.027344 170.128906 153.945312 161.105469 164.503906 156.449219 L 189.957031 145.246094 C 200.40625 140.664062 210.035156 142.074219 220.644531 144.238281 L 286.140625 159.746094 L 332.261719 142.429688 C 333.9375 141.796875 335.8125 142.640625 336.441406 144.316406 C 337.058594 145.988281 336.214844 147.851562 334.539062 148.480469 L 287.488281 166.152344 C 286.894531 166.378906 286.230469 166.414062 285.613281 166.277344 L 219.25 150.570312 C 207.820312 148.242188 200.519531 147.675781 192.5625 151.175781 L 167.109375 162.375 C 158.296875 166.25 151.703125 173.777344 149.007812 183.015625 L 142.273438 206.121094 C 141.304688 209.46875 142.816406 213.117188 145.8125 214.589844 C 151.1875 217.222656 156.183594 217.699219 160.652344 216 C 166.667969 213.722656 171.804688 207.480469 175.933594 197.460938 C 175.972656 197.375 175.996094 197.296875 176.035156 197.222656 C 176.324219 196.667969 183.046875 183.632812 194.464844 182.699219 C 201.765625 182.097656 208.941406 186.539062 215.761719 195.863281 C 217.488281 198.40625 256.824219 255.203125 309.867188 219.597656 C 311.355469 218.605469 313.367188 219.007812 314.363281 220.492188 C 315.355469 221.964844 314.964844 223.980469 313.480469 224.972656 C 299.785156 234.171875 286.871094 237.695312 275.125 237.695312 " fill-opacity="1" fill-rule="nonzero"/><path fill="#1f2937" d="M 281.988281 272.167969 C 280.839844 272.167969 279.722656 271.550781 279.140625 270.46875 C 278.285156 268.894531 278.878906 266.933594 280.449219 266.089844 L 331.859375 238.289062 C 333.433594 237.433594 335.398438 238.023438 336.253906 239.597656 C 337.097656 241.171875 336.515625 243.132812 334.945312 243.988281 L 283.523438 271.777344 C 283.03125 272.042969 282.503906 272.167969 281.988281 272.167969 " fill-opacity="1" fill-rule="nonzero"/><path fill="#1f2937" d="M 276.699219 304.082031 C 271.652344 304.082031 266.816406 302.019531 263.257812 298.242188 L 211.53125 243.359375 C 210.300781 242.0625 210.363281 240.011719 211.660156 238.777344 C 212.96875 237.558594 215.019531 237.621094 216.242188 238.917969 L 267.964844 293.800781 C 270.882812 296.882812 275.101562 298.21875 279.269531 297.324219 C 283.421875 296.457031 286.746094 293.535156 288.15625 289.523438 C 289.3125 286.238281 288.734375 282.652344 286.605469 279.90625 L 251.777344 243.925781 C 250.53125 242.65625 250.566406 240.605469 251.851562 239.359375 C 253.136719 238.113281 255.1875 238.136719 256.433594 239.433594 L 291.363281 275.527344 C 291.441406 275.601562 291.515625 275.679688 291.578125 275.753906 C 295.179688 280.273438 296.1875 286.226562 294.257812 291.675781 C 292.09375 297.828125 286.984375 302.308594 280.601562 303.667969 C 279.304688 303.945312 277.996094 304.082031 276.699219 304.082031 " fill-opacity="1" fill-rule="nonzero"/><path fill="#1f2937" d="M 250.871094 322.734375 C 243.882812 322.734375 237.1875 319.914062 232.203125 314.703125 L 188.660156 269.171875 C 187.425781 267.886719 187.476562 265.835938 188.773438 264.605469 C 190.058594 263.371094 192.109375 263.40625 193.34375 264.703125 L 236.882812 310.238281 C 241.667969 315.246094 248.578125 317.296875 255.363281 315.75 C 261.972656 314.226562 267.144531 309.507812 269.199219 303.113281 L 269.425781 302.398438 C 269.953125 300.683594 271.753906 299.730469 273.464844 300.246094 C 275.175781 300.773438 276.132812 302.585938 275.617188 304.296875 L 275.378906 305.078125 C 272.609375 313.671875 265.671875 320.015625 256.8125 322.054688 C 254.835938 322.507812 252.847656 322.734375 250.871094 322.734375 " fill-opacity="1" fill-rule="nonzero"/><path fill="#1f2937" d="M 222.847656 339.410156 C 222.371094 339.410156 221.917969 339.398438 221.464844 339.371094 C 214.867188 339.019531 208.585938 335.859375 203.742188 330.488281 L 167.738281 290.503906 C 166.542969 289.183594 166.644531 287.132812 167.980469 285.933594 C 169.300781 284.738281 171.351562 284.851562 172.546875 286.175781 L 208.550781 326.15625 C 212.1875 330.183594 217.019531 332.652344 221.816406 332.902344 C 229.535156 333.316406 236.179688 329.128906 241.503906 320.40625 C 242.4375 318.871094 244.425781 318.390625 245.949219 319.324219 C 247.472656 320.253906 247.960938 322.253906 247.03125 323.777344 C 239.25 336.503906 229.835938 339.410156 222.847656 339.410156 " fill-opacity="1" fill-rule="nonzero"/><g clip-path="url(#3ee771ee33)"><path fill="#1f2937" d="M 195.332031 348.15625 C 190.710938 348.15625 186.207031 346.40625 182.769531 343.109375 L 77.9375 237.394531 L 40.425781 227.265625 C 38.703125 226.796875 37.683594 225.011719 38.148438 223.285156 C 38.613281 221.5625 40.390625 220.542969 42.113281 221.007812 L 80.46875 231.367188 C 81.023438 231.515625 81.527344 231.808594 81.929688 232.222656 L 187.300781 338.492188 C 190.398438 341.460938 194.953125 342.46875 199.160156 341.058594 C 203.160156 339.710938 205.945312 336.476562 206.585938 332.398438 L 206.648438 332.035156 C 206.863281 330.261719 208.5 329.027344 210.261719 329.226562 C 212.035156 329.453125 213.296875 331.078125 213.070312 332.851562 L 212.992188 333.355469 C 211.949219 339.925781 207.554688 345.074219 201.210938 347.199219 C 199.285156 347.839844 197.296875 348.15625 195.332031 348.15625 " fill-opacity="1" fill-rule="nonzero"/></g><path fill="#1f2937" d="M 87.242188 294.820312 C 83.691406 294.820312 80.117188 293.636719 77.144531 291.207031 C 74.035156 288.652344 72.136719 285.027344 71.820312 281.003906 C 71.519531 276.976562 72.828125 273.109375 75.507812 270.101562 L 94.339844 249.550781 C 95.546875 248.242188 97.601562 248.140625 98.921875 249.351562 C 100.230469 250.558594 100.320312 252.609375 99.125 253.929688 L 80.316406 274.445312 C 78.84375 276.09375 78.101562 278.257812 78.277344 280.5 C 78.453125 282.75 79.511719 284.765625 81.25 286.199219 C 85.203125 289.421875 90.929688 288.96875 94.300781 285.15625 C 95.5 283.808594 97.539062 283.695312 98.871094 284.878906 C 100.21875 286.0625 100.34375 288.113281 99.160156 289.445312 C 96 292.996094 91.632812 294.820312 87.242188 294.820312 " fill-opacity="1" fill-rule="nonzero"/><path fill="#1f2937" d="M 103.039062 318.882812 C 99.011719 318.882812 94.945312 317.472656 91.632812 314.605469 C 88.109375 311.558594 85.996094 307.316406 85.65625 302.671875 C 85.328125 298.03125 86.824219 293.535156 89.871094 290.027344 L 107.785156 270.34375 C 108.980469 269.019531 111.03125 268.921875 112.351562 270.128906 C 113.675781 271.335938 113.777344 273.375 112.566406 274.695312 L 94.71875 294.316406 C 92.84375 296.46875 91.910156 299.300781 92.113281 302.207031 C 92.324219 305.128906 93.660156 307.796875 95.875 309.707031 C 100.382812 313.609375 107.066406 313.21875 111.09375 308.828125 L 120.824219 298.21875 C 122.035156 296.910156 124.085938 296.820312 125.40625 298.03125 C 126.714844 299.238281 126.804688 301.277344 125.59375 302.597656 L 115.878906 313.207031 C 112.417969 316.96875 107.746094 318.882812 103.039062 318.882812 " fill-opacity="1" fill-rule="nonzero"/><path fill="#1f2937" d="M 127.28125 334.074219 C 123.054688 334.074219 118.824219 332.550781 115.5 329.453125 C 108.5625 323 108.136719 312.0625 114.53125 305.089844 L 129.484375 288.804688 C 130.695312 287.484375 132.746094 287.394531 134.066406 288.601562 C 135.375 289.8125 135.464844 291.863281 134.257812 293.183594 L 119.300781 309.46875 C 115.296875 313.824219 115.5625 320.671875 119.90625 324.722656 C 124.25 328.761719 131.109375 328.535156 135.1875 324.21875 L 141.757812 317.234375 C 142.980469 315.9375 145.03125 315.875 146.339844 317.097656 C 147.636719 318.328125 147.699219 320.378906 146.464844 321.675781 L 139.894531 328.648438 C 136.496094 332.261719 131.902344 334.074219 127.28125 334.074219 " fill-opacity="1" fill-rule="nonzero"/><g clip-path="url(#d8ffbf009f)"><path fill="#1f2937" d="M 150.417969 348.710938 C 146.300781 348.710938 142.171875 347.199219 138.976562 344.140625 C 132.417969 337.886719 132.140625 327.441406 138.359375 320.847656 L 150.621094 307.859375 C 151.839844 306.5625 153.894531 306.5 155.191406 307.71875 C 156.484375 308.953125 156.550781 311.003906 155.328125 312.300781 L 143.066406 325.277344 C 139.292969 329.289062 139.453125 335.660156 143.445312 339.460938 C 147.410156 343.246094 153.765625 343.148438 157.605469 339.21875 L 170.523438 326.699219 C 171.804688 325.464844 173.855469 325.488281 175.101562 326.773438 C 176.351562 328.058594 176.3125 330.109375 175.027344 331.355469 L 162.175781 343.8125 C 158.992188 347.0625 154.710938 348.710938 150.417969 348.710938 " fill-opacity="1" fill-rule="nonzero"/></g><path fill="#1f2937" d="M 177.949219 156.285156 C 177.683594 156.285156 177.40625 156.246094 177.144531 156.183594 L 54.046875 124.71875 C 52.308594 124.28125 51.265625 122.503906 51.707031 120.78125 C 52.144531 119.042969 53.921875 118 55.644531 118.441406 L 178.742188 149.902344 C 180.476562 150.355469 181.523438 152.117188 181.082031 153.84375 C 180.707031 155.316406 179.394531 156.285156 177.949219 156.285156 " fill-opacity="1" fill-rule="nonzero"/></svg>